<svg width="588.185" height="137.018"><defs><filter id="n" width="1" height="1" x="0" y="0" color-interpolation-filters="sRGB"><feColorMatrix values="0.21 0.72 0.072 0 0 0.21 0.72 0.072 0 0 0.21 0.72 0.072 0 0 0 0 0 1 0"/></filter><filter id="m" width="1" height="1" x="0" y="0" color-interpolation-filters="sRGB"><feColorMatrix values="0.21 0.72 0.072 0 0 0.21 0.72 0.072 0 0 0.21 0.72 0.072 0 0 0 0 0 1 0"/></filter><filter id="l" width="1" height="1" x="0" y="0" color-interpolation-filters="sRGB"><feColorMatrix values="0.21 0.72 0.072 0 0 0.21 0.72 0.072 0 0 0.21 0.72 0.072 0 0 0 0 0 1 0"/></filter><filter id="k" width="1" height="1" x="0" y="0" color-interpolation-filters="sRGB"><feColorMatrix values="0.21 0.72 0.072 0 0 0.21 0.72 0.072 0 0 0.21 0.72 0.072 0 0 0 0 0 1 0"/></filter><filter id="j" width="1" height="1" x="0" y="0" color-interpolation-filters="sRGB"><feColorMatrix values="0.21 0.72 0.072 0 0 0.21 0.72 0.072 0 0 0.21 0.72 0.072 0 0 0 0 0 1 0"/></filter><filter id="i" width="1" height="1" x="0" y="0" color-interpolation-filters="sRGB"><feColorMatrix values="0.21 0.72 0.072 0 0 0.21 0.72 0.072 0 0 0.21 0.72 0.072 0 0 0 0 0 1 0"/></filter><filter id="h" width="1" height="1" x="0" y="0" color-interpolation-filters="sRGB"><feColorMatrix values="0.21 0.72 0.072 0 0 0.21 0.72 0.072 0 0 0.21 0.72 0.072 0 0 0 0 0 1 0"/></filter><filter id="g" width="1" height="1" x="0" y="0" color-interpolation-filters="sRGB"><feColorMatrix values="0.21 0.72 0.072 0 0 0.21 0.72 0.072 0 0 0.21 0.72 0.072 0 0 0 0 0 1 0"/></filter><filter id="f" width="1" height="1" x="0" y="0" color-interpolation-filters="sRGB"><feColorMatrix values="0.21 0.72 0.072 0 0 0.21 0.72 0.072 0 0 0.21 0.72 0.072 0 0 0 0 0 1 0"/></filter><filter id="e" width="1" height="1" x="0" y="0" color-interpolation-filters="sRGB"><feColorMatrix values="0.21 0.72 0.072 0 0 0.21 0.72 0.072 0 0 0.21 0.72 0.072 0 0 0 0 0 1 0"/></filter><filter id="d" width="1" height="1" x="0" y="0" color-interpolation-filters="sRGB"><feColorMatrix values="0.21 0.72 0.072 0 0 0.21 0.72 0.072 0 0 0.21 0.72 0.072 0 0 0 0 0 1 0"/></filter><filter id="c" width="1" height="1" x="0" y="0" color-interpolation-filters="sRGB"><feColorMatrix values="0.21 0.72 0.072 0 0 0.21 0.72 0.072 0 0 0.21 0.72 0.072 0 0 0 0 0 1 0"/></filter><filter id="b" width="1" height="1" x="0" y="0" color-interpolation-filters="sRGB"><feColorMatrix values="0.21 0.72 0.072 0 0 0.21 0.72 0.072 0 0 0.21 0.72 0.072 0 0 0 0 0 1 0"/></filter><filter id="a" width="1" height="1" x="0" y="0" color-interpolation-filters="sRGB"><feColorMatrix values="0.21 0.72 0.072 0 0 0.21 0.72 0.072 0 0 0.21 0.72 0.072 0 0 0 0 0 1 0"/></filter></defs><g transform="matrix(3.1476 0 0 -3.1476 91.61 100.879)" filter="url(#a)"><path d="m0 0-1.109 3.877c.921.787 2.101 1.249 2.872 1.549H-11.71c5.275 6.445 10.027 9.277 15.317 11.777-.064.324-.051.666-.051.927 0 2.238 1.728 5.062 5.817 5.062h.032c.932-.003 1.937-.135 2.831-.486 1.503-.602 2.046-1.585 2.336-1.871.45-.442.788-.685 1.245-.914-.28-.22-1.13-.777-1.801-1.024q-.21-.077-.209-.147 0-.071.211-.148c.822-.37 1.578-.971 1.841-1.204-.975-.687-1.288-1.86-1.389-2.361-.1-.5-.903-3.845-1.078-4.494-1.949-6.43-7.044-8.766-8.21-9.294a11 11 0 0 0-.314-.136l-.003.008C4.158.81 3.1.478 2.114.277h.001A14 14 0 0 0 0 0m9.787 20.948a2.05 2.05 0 1 1 0-4.101 2.05 2.05 0 0 1 0 4.101" fill="#ed1c24" fill-opacity="1" fill-rule="nonzero" stroke="none"/></g><g transform="matrix(3.1476 0 0 -3.1476 122.415 47.851)" filter="url(#b)"><path d="M0 0a2.05 2.05 0 1 0 .627 4.003L-.3 2.02c-.068-.155-.038-.247.065-.247q.06 0 .147.042l1.996.986A2.05 2.05 0 0 0 0 0" fill="#009d57" fill-opacity="1" fill-rule="nonzero" stroke="none"/></g><g transform="matrix(3.1476 0 0 -3.1476 59.387 63.284)" filter="url(#c)"><path d="M0 0h-9.966l6.335 18.517h19.207l1.942-5.709c-3.795-.441-6.673-2.605-6.919-6.469a52 52 0 0 1-1.84-.935l-2.991 9.769-4.38-14.141C.789.639.325.257 0 0" fill="#ed1c24" fill-opacity="1" fill-rule="nonzero" stroke="none"/></g><g transform="matrix(3.1476 0 0 -3.1476 41.647 130.495)" filter="url(#d)"><path d="M0 0h-11.643l4.81 13.994 3.891-.005c-.587-.755-1.178-2.041-1.457-2.972h7.85z" fill="#ed1c24" fill-opacity="1" fill-rule="nonzero" stroke="none"/></g><g transform="matrix(3.1476 0 0 -3.1476 117.017 130.495)" filter="url(#e)"><path d="M0 0h-3.023l-2.934 9.686h-.001c.986.201 2.044.533 2.751.844l.003-.008z" fill="#009d57" fill-opacity="1" fill-rule="nonzero" stroke="none"/></g><g transform="matrix(3.1476 0 0 -3.1476 151.596 130.495)" filter="url(#f)"><path d="M0 0h-10.157l-2.981 10.045c4.208 2.073 6.216 5.052 7.279 7.112z" fill="#ed1c24" fill-opacity="1" fill-rule="nonzero" stroke="none"/></g><g transform="matrix(3.1476 0 0 -3.1476 141.527 46.12)" filter="url(#g)"><path d="M0 0c-.263.233-1.019.834-1.841 1.204q-.211.077-.211.148-.001.07.209.147c.671.247 1.521.804 1.801 1.024.26-.126.715-.172 1.185-.172 1.615 0 2.931-.46 3.649-.747.281-.105.282-.196.002-.299C2.197.115 1.194.873 0 0" fill="#009d57" fill-opacity="1" fill-rule="nonzero" stroke="none"/></g><g transform="matrix(3.1476 0 0 -3.1476 100.536 130.495)" filter="url(#h)"><path d="M0 0h-3.07l-3.516 11.868h-15.31c.501 1.179 1.349 2.329 2.074 3.016h-9.999c.163 1.475 1.362 2.743 3.168 2.743l.104.102-.102.105c-1.744 0-2.932 1.116-3.158 2.672h17.041c3.189 2.612 8.233 5.31 11.137 6.623-.238 3.263 2.513 6.191 7.063 6.22h.043c2.276 0 4.38-1.217 5.024-1.832a4.8 4.8 0 0 1-1.1.598c-.894.351-1.899.483-2.831.486h-.032c-4.088 0-5.817-2.824-5.817-5.062 0-.261-.013-.603.051-.927-5.289-2.5-10.042-5.333-15.316-11.777h13.472c-.771-.3-1.951-.762-2.872-1.55l1.109-3.876z" fill="#009d57" fill-opacity="1" fill-rule="nonzero" stroke="none"/></g><g transform="matrix(3.1476 0 0 -3.1476 121.675 42.274)" filter="url(#i)"><path d="M0 0c-.103 0-.133.092-.065.247l.927 1.984a2.05 2.05 0 0 0 1.281-1.203L.147.042A.34.34 0 0 0 0 0" fill="#fff" fill-opacity="1" fill-rule="nonzero" stroke="none"/></g><g transform="matrix(3.1476 0 0 -3.1476 583.185 130.501)" filter="url(#j)"><path d="M0 0h-9.677l-.028 12.417c0 4.226-1.267 5.74-3.582 5.74-3.029 0-4.586-2.29-4.586-7.117L-17.89 0h-9.499c.294 7.39.01 18.485-.227 25.326h8.583s.192-1.022.192-2.673l-.01-.961c1.134 1.564 4.447 4.19 8.482 4.19q.23 0 .462-.011c4.246-.212 7.314-2.253 8.658-5.048.758-1.583.986-3.982 1.039-5.763l-.01-6.858C-.22 3.712 0 0 0 0" fill="#ed1c24" fill-opacity="1" fill-rule="nonzero" stroke="none"/></g><g transform="matrix(3.1476 0 0 -3.1476 181.505 132.018)" filter="url(#k)"><path d="M0 0q-.313 0-.633.024c-5.36.394-9.582 2.795-9.582 10.719l.021 15.06h9.561l.004-12.419c0-4.224 1.152-5.738 3.468-5.738 3.029 0 4.493 2.769 4.493 7.116l.009 11.041h9.414c-.293-7.39-.009-18.485.228-25.325H8.4c-.477.781-.43 3.211-.43 3.211C6.581 2.151 3.538.001 0 0" fill="#ed1c24" fill-opacity="1" fill-rule="nonzero" stroke="none"/></g><g transform="matrix(3.1476 0 0 -3.1476 436.576 131.278)" filter="url(#l)"><path d="M0 0c-.144 0-.223.004-.223.004Q-.368.001-.514 0c-4.275 0-9.015 2.625-8.913 8.126.133 7.193 7.537 8.324 13.441 8.324 1.834 0 3.105-.045 3.105-.045-.187 3.567-3.613 3.727-6.048 3.727-3.219 0-7.376-2.259-7.376-2.259v6.238c.761.566 5.007 2.147 9.769 2.147 1.198 0 2.431-.1 3.649-.343 6.045-1.203 7.456-4.664 8.135-6.136.677-1.474.635-6.661.635-6.779.002-8.428.233-12.764.233-12.764h-8.21s-.185.937-.185 3.195C5.143.203 1.001 0 0 0m4.988 11.349c-2.3 0-5.496-.545-5.362-2.98.089-1.625 1.397-2.462 2.9-2.462 2.14 0 4.676 1.697 4.653 5.229-.273.099-1.138.213-2.191.213" fill="#ed1c24" fill-opacity="1" fill-rule="nonzero" stroke="none"/></g><g transform="matrix(3.1476 0 0 -3.1476 401.336 130.501)" filter="url(#m)"><path d="M0 0h-9.574l-.002 12.402c0 4.227-1.486 5.697-3.492 5.697-3.032 0-4.59-2.245-4.59-7.077L-17.642 0h-9.409l-.016 32.72h9.473l.029-9.961c1.514 1.341 4.186 3.096 7.444 3.096q.226 0 .454-.012C-5.425 25.631 0 23.672 0 14.535z" fill="#ed1c24" fill-opacity="1" fill-rule="nonzero" stroke="none"/></g><g transform="matrix(3.1476 0 0 -3.1476 286.587 131.322)" filter="url(#n)"><path d="M0 0c-6.666-.001-14.733 2.868-14.733 13.104 0 10.083 7.711 13.058 14.234 13.058 3.204 0 6.121-.717 7.697-1.663l-.637-7.141c-1.288 1.036-3.266 1.641-5.23 1.641-3.251 0-6.466-1.656-6.466-5.759 0-4.548 3.45-6.198 6.88-6.198 2.099 0 4.191.618 5.479 1.567l.247-7.184C5.935.629 3.121 0 0 0" fill="#ed1c24" fill-opacity="1" fill-rule="nonzero" stroke="none"/></g></svg>