<?xml version="1.0" encoding="UTF-8" standalone="no"?>
<!-- Created with Inkscape (http://www.inkscape.org/) -->

<svg
   width="588.18518"
   height="137.01811"
   id="svg7673"
   version="1.1"
   inkscape:version="1.4 (e7c3feb1, 2024-10-09)"
   sodipodi:docname="auchan.svg"
   xmlns:inkscape="http://www.inkscape.org/namespaces/inkscape"
   xmlns:sodipodi="http://sodipodi.sourceforge.net/DTD/sodipodi-0.dtd"
   xmlns="http://www.w3.org/2000/svg"
   xmlns:svg="http://www.w3.org/2000/svg"
   xmlns:rdf="http://www.w3.org/1999/02/22-rdf-syntax-ns#"
   xmlns:cc="http://creativecommons.org/ns#"
   xmlns:dc="http://purl.org/dc/elements/1.1/">
  <defs
     id="defs7675">
    <filter
       style="color-interpolation-filters:sRGB;"
       inkscape:label="Greyscale"
       id="filter1"
       x="0"
       y="0"
       width="1"
       height="1">
      <feColorMatrix
         values="0.21 0.72 0.072 0 0 0.21 0.72 0.072 0 0 0.21 0.72 0.072 0 0 0 0 0 1 0 "
         id="feColorMatrix1" />
    </filter>
    <filter
       style="color-interpolation-filters:sRGB;"
       inkscape:label="Greyscale"
       id="filter2"
       x="0"
       y="0"
       width="1"
       height="1">
      <feColorMatrix
         values="0.21 0.72 0.072 0 0 0.21 0.72 0.072 0 0 0.21 0.72 0.072 0 0 0 0 0 1 0 "
         id="feColorMatrix2" />
    </filter>
    <filter
       style="color-interpolation-filters:sRGB;"
       inkscape:label="Greyscale"
       id="filter3"
       x="0"
       y="0"
       width="1"
       height="1">
      <feColorMatrix
         values="0.21 0.72 0.072 0 0 0.21 0.72 0.072 0 0 0.21 0.72 0.072 0 0 0 0 0 1 0 "
         id="feColorMatrix3" />
    </filter>
    <filter
       style="color-interpolation-filters:sRGB;"
       inkscape:label="Greyscale"
       id="filter4"
       x="0"
       y="0"
       width="1"
       height="1">
      <feColorMatrix
         values="0.21 0.72 0.072 0 0 0.21 0.72 0.072 0 0 0.21 0.72 0.072 0 0 0 0 0 1 0 "
         id="feColorMatrix4" />
    </filter>
    <filter
       style="color-interpolation-filters:sRGB;"
       inkscape:label="Greyscale"
       id="filter5"
       x="0"
       y="0"
       width="1"
       height="1">
      <feColorMatrix
         values="0.21 0.72 0.072 0 0 0.21 0.72 0.072 0 0 0.21 0.72 0.072 0 0 0 0 0 1 0 "
         id="feColorMatrix5" />
    </filter>
    <filter
       style="color-interpolation-filters:sRGB;"
       inkscape:label="Greyscale"
       id="filter6"
       x="0"
       y="0"
       width="1"
       height="1">
      <feColorMatrix
         values="0.21 0.72 0.072 0 0 0.21 0.72 0.072 0 0 0.21 0.72 0.072 0 0 0 0 0 1 0 "
         id="feColorMatrix6" />
    </filter>
    <filter
       style="color-interpolation-filters:sRGB;"
       inkscape:label="Greyscale"
       id="filter7"
       x="0"
       y="0"
       width="1"
       height="1">
      <feColorMatrix
         values="0.21 0.72 0.072 0 0 0.21 0.72 0.072 0 0 0.21 0.72 0.072 0 0 0 0 0 1 0 "
         id="feColorMatrix7" />
    </filter>
    <filter
       style="color-interpolation-filters:sRGB;"
       inkscape:label="Greyscale"
       id="filter8"
       x="0"
       y="0"
       width="1"
       height="1">
      <feColorMatrix
         values="0.21 0.72 0.072 0 0 0.21 0.72 0.072 0 0 0.21 0.72 0.072 0 0 0 0 0 1 0 "
         id="feColorMatrix8" />
    </filter>
    <filter
       style="color-interpolation-filters:sRGB;"
       inkscape:label="Greyscale"
       id="filter9"
       x="0"
       y="0"
       width="1"
       height="1">
      <feColorMatrix
         values="0.21 0.72 0.072 0 0 0.21 0.72 0.072 0 0 0.21 0.72 0.072 0 0 0 0 0 1 0 "
         id="feColorMatrix9" />
    </filter>
    <filter
       style="color-interpolation-filters:sRGB;"
       inkscape:label="Greyscale"
       id="filter10"
       x="0"
       y="0"
       width="1"
       height="1">
      <feColorMatrix
         values="0.21 0.72 0.072 0 0 0.21 0.72 0.072 0 0 0.21 0.72 0.072 0 0 0 0 0 1 0 "
         id="feColorMatrix10" />
    </filter>
    <filter
       style="color-interpolation-filters:sRGB;"
       inkscape:label="Greyscale"
       id="filter11"
       x="0"
       y="0"
       width="1"
       height="1">
      <feColorMatrix
         values="0.21 0.72 0.072 0 0 0.21 0.72 0.072 0 0 0.21 0.72 0.072 0 0 0 0 0 1 0 "
         id="feColorMatrix11" />
    </filter>
    <filter
       style="color-interpolation-filters:sRGB;"
       inkscape:label="Greyscale"
       id="filter12"
       x="0"
       y="0"
       width="1"
       height="1">
      <feColorMatrix
         values="0.21 0.72 0.072 0 0 0.21 0.72 0.072 0 0 0.21 0.72 0.072 0 0 0 0 0 1 0 "
         id="feColorMatrix12" />
    </filter>
    <filter
       style="color-interpolation-filters:sRGB;"
       inkscape:label="Greyscale"
       id="filter13"
       x="0"
       y="0"
       width="1"
       height="1">
      <feColorMatrix
         values="0.21 0.72 0.072 0 0 0.21 0.72 0.072 0 0 0.21 0.72 0.072 0 0 0 0 0 1 0 "
         id="feColorMatrix13" />
    </filter>
    <filter
       style="color-interpolation-filters:sRGB;"
       inkscape:label="Greyscale"
       id="filter14"
       x="0"
       y="0"
       width="1"
       height="1">
      <feColorMatrix
         values="0.21 0.72 0.072 0 0 0.21 0.72 0.072 0 0 0.21 0.72 0.072 0 0 0 0 0 1 0 "
         id="feColorMatrix14" />
    </filter>
  </defs>
  <sodipodi:namedview
     id="base"
     pagecolor="#ffffff"
     bordercolor="#666666"
     borderopacity="1.0"
     inkscape:pageopacity="0.0"
     inkscape:pageshadow="2"
     inkscape:zoom="0.7"
     inkscape:cx="144.28571"
     inkscape:cy="-5"
     inkscape:document-units="px"
     inkscape:current-layer="layer1"
     showgrid="false"
     fit-margin-top="5"
     fit-margin-right="5"
     fit-margin-bottom="5"
     fit-margin-left="5"
     inkscape:window-width="1200"
     inkscape:window-height="1186"
     inkscape:window-x="0"
     inkscape:window-y="31"
     inkscape:window-maximized="0"
     inkscape:showpageshadow="2"
     inkscape:pagecheckerboard="0"
     inkscape:deskcolor="#d1d1d1" />
  <metadata
     id="metadata7678">
    <rdf:RDF>
      <cc:Work
         rdf:about="">
        <dc:format>image/svg+xml</dc:format>
        <dc:type
           rdf:resource="http://purl.org/dc/dcmitype/StillImage" />
        <dc:title />
      </cc:Work>
    </rdf:RDF>
  </metadata>
  <g
     inkscape:label="Calque 1"
     inkscape:groupmode="layer"
     id="layer1"
     transform="translate(-68.764552,-372.42455)">
    <g
       transform="matrix(3.1475967,0,0,-3.1475967,160.37383,473.30349)"
       id="g6544"
       style="filter:url(#filter14)">
      <path
         id="path6546"
         style="fill:#ed1c24;fill-opacity:1;fill-rule:nonzero;stroke:none"
         d="m 0,0 -1.109,3.877 c 0.921,0.787 2.101,1.249 2.872,1.549 l -13.473,0 c 5.275,6.445 10.027,9.277 15.317,11.777 -0.064,0.324 -0.051,0.666 -0.051,0.927 0,2.238 1.728,5.062 5.817,5.062 0.011,0 0.021,0 0.032,0 0.932,-0.003 1.937,-0.135 2.831,-0.486 1.503,-0.602 2.046,-1.585 2.336,-1.871 0.45,-0.442 0.788,-0.685 1.245,-0.914 -0.28,-0.22 -1.13,-0.777 -1.801,-1.024 -0.14,-0.052 -0.21,-0.099 -0.209,-0.147 0,-0.048 0.07,-0.096 0.211,-0.148 0.822,-0.37 1.578,-0.971 1.841,-1.204 -0.975,-0.687 -1.288,-1.86 -1.389,-2.361 -0.1,-0.5 -0.903,-3.845 -1.078,-4.494 C 11.443,4.113 6.348,1.777 5.182,1.249 5.081,1.203 4.976,1.158 4.868,1.113 L 4.865,1.121 C 4.158,0.81 3.1,0.478 2.114,0.277 l 0.001,0 C 1.44,0.138 0.727,0.039 0,0 z m 9.787,20.948 c -1.134,0 -2.051,-0.917 -2.051,-2.051 0,-1.132 0.917,-2.05 2.051,-2.05 1.131,0 2.049,0.918 2.049,2.05 0,0.265 -0.05,0.518 -0.141,0.751 -0.223,0.569 -0.695,1.014 -1.281,1.202 -0.198,0.064 -0.408,0.098 -0.627,0.098"
         inkscape:connector-curvature="0" />
    </g>
    <g
       transform="matrix(3.1475967,0,0,-3.1475967,191.17935,420.27591)"
       id="g6548"
       style="filter:url(#filter13)">
      <path
         id="path6550"
         style="fill:#009d57;fill-opacity:1;fill-rule:nonzero;stroke:none"
         d="m 0,0 c -1.134,0 -2.051,0.918 -2.051,2.05 0,1.134 0.917,2.051 2.051,2.051 0.219,0 0.429,-0.034 0.627,-0.098 L -0.3,2.02 c -0.068,-0.155 -0.038,-0.247 0.065,-0.247 0.039,0 0.089,0.013 0.147,0.042 L 1.908,2.801 C 1.999,2.568 2.049,2.315 2.049,2.05 2.049,0.918 1.131,0 0,0"
         inkscape:connector-curvature="0" />
    </g>
    <g
       transform="matrix(3.1475967,0,0,-3.1475967,128.15188,435.7086)"
       id="g6552"
       style="filter:url(#filter12)">
      <path
         id="path6554"
         style="fill:#ed1c24;fill-opacity:1;fill-rule:nonzero;stroke:none"
         d="m 0,0 -9.966,0 6.335,18.517 19.207,0 1.942,-5.709 C 13.723,12.367 10.845,10.203 10.599,6.339 10.139,6.124 9.143,5.611 8.759,5.404 L 5.768,15.173 1.388,1.032 C 0.789,0.639 0.325,0.257 0,0"
         inkscape:connector-curvature="0" />
    </g>
    <g
       transform="matrix(3.1475967,0,0,-3.1475967,110.41202,502.91923)"
       id="g6556"
       style="filter:url(#filter11)">
      <path
         id="path6558"
         style="fill:#ed1c24;fill-opacity:1;fill-rule:nonzero;stroke:none"
         d="m 0,0 -11.643,0 4.81,13.994 3.891,-0.005 C -3.529,13.234 -4.12,11.948 -4.399,11.017 l 7.85,0 L 0,0"
         inkscape:connector-curvature="0" />
    </g>
    <g
       transform="matrix(3.1475967,0,0,-3.1475967,185.78123,502.91923)"
       id="g6560"
       style="filter:url(#filter10)">
      <path
         id="path6562"
         style="fill:#009d57;fill-opacity:1;fill-rule:nonzero;stroke:none"
         d="m 0,0 -3.023,0 -2.934,9.686 -0.001,0 c 0.986,0.201 2.044,0.533 2.751,0.844 L -3.204,10.522 0,0"
         inkscape:connector-curvature="0" />
    </g>
    <g
       transform="matrix(3.1475967,0,0,-3.1475967,220.36072,502.91923)"
       id="g6564"
       style="filter:url(#filter9)">
      <path
         id="path6566"
         style="fill:#ed1c24;fill-opacity:1;fill-rule:nonzero;stroke:none"
         d="m 0,0 -10.157,0 -2.981,10.045 c 4.208,2.073 6.216,5.052 7.279,7.112 L 0,0"
         inkscape:connector-curvature="0" />
    </g>
    <g
       transform="matrix(3.1475967,0,0,-3.1475967,210.29156,418.54475)"
       id="g6568"
       style="filter:url(#filter8)">
      <path
         id="path6570"
         style="fill:#009d57;fill-opacity:1;fill-rule:nonzero;stroke:none"
         d="m 0,0 c -0.263,0.233 -1.019,0.834 -1.841,1.204 -0.141,0.052 -0.211,0.1 -0.211,0.148 -10e-4,0.048 0.069,0.095 0.209,0.147 0.671,0.247 1.521,0.804 1.801,1.024 0.26,-0.126 0.715,-0.172 1.185,-0.172 1.615,0 2.931,-0.46 3.649,-0.747 C 5.073,1.499 5.074,1.408 4.794,1.305 2.197,0.115 1.194,0.873 0,0"
         inkscape:connector-curvature="0" />
    </g>
    <g
       transform="matrix(3.1475967,0,0,-3.1475967,169.30041,502.91923)"
       id="g6572"
       style="filter:url(#filter7)">
      <path
         id="path6574"
         style="fill:#009d57;fill-opacity:1;fill-rule:nonzero;stroke:none"
         d="m 0,0 -3.07,0 -3.516,11.868 -15.31,0 c 0.501,1.179 1.349,2.329 2.074,3.016 l -9.999,0 c 0.163,1.475 1.362,2.743 3.168,2.743 l 0.104,0.102 -0.102,0.105 c -1.744,0 -2.932,1.116 -3.158,2.672 l 17.041,0 c 3.189,2.612 8.233,5.31 11.137,6.623 -0.238,3.263 2.513,6.191 7.063,6.22 0.014,0 0.029,0 0.043,0 2.276,0 4.38,-1.217 5.024,-1.832 -0.335,0.247 -0.707,0.444 -1.1,0.598 -0.894,0.351 -1.899,0.483 -2.831,0.486 -0.011,0 -0.021,0 -0.032,0 -4.088,0 -5.817,-2.824 -5.817,-5.062 0,-0.261 -0.013,-0.603 0.051,-0.927 -5.289,-2.5 -10.042,-5.333 -15.316,-11.777 l 13.472,0 c -0.771,-0.3 -1.951,-0.762 -2.872,-1.55 L -2.837,9.409 0,0"
         inkscape:connector-curvature="0" />
    </g>
    <g
       transform="matrix(3.1475967,0,0,-3.1475967,190.43967,414.69837)"
       id="g6576"
       style="filter:url(#filter6)">
      <path
         id="path6578"
         style="fill:#ffffff;fill-opacity:1;fill-rule:nonzero;stroke:none"
         d="M 0,0 C -0.103,0 -0.133,0.092 -0.065,0.247 L 0.862,2.231 C 1.448,2.043 1.92,1.598 2.143,1.028 L 0.147,0.042 C 0.089,0.013 0.039,0 0,0"
         inkscape:connector-curvature="0" />
    </g>
    <g
       transform="matrix(3.1475967,0,0,-3.1475967,651.94973,502.92553)"
       id="g6580"
       style="filter:url(#filter5)">
      <path
         id="path6582"
         style="fill:#ed1c24;fill-opacity:1;fill-rule:nonzero;stroke:none"
         d="m 0,0 -9.677,0 -0.028,12.417 c 0,4.226 -1.267,5.74 -3.582,5.74 -3.029,0 -4.586,-2.29 -4.586,-7.117 L -17.89,0 -27.389,0 c 0.294,7.39 0.01,18.485 -0.227,25.326 l 8.583,0 c 0,0 0.192,-1.022 0.192,-2.673 l -0.01,-0.961 c 1.134,1.564 4.447,4.19 8.482,4.19 0.153,0 0.307,-0.004 0.462,-0.011 4.246,-0.212 7.314,-2.253 8.658,-5.048 0.758,-1.583 0.986,-3.982 1.039,-5.763 L -0.22,8.202 C -0.22,3.712 0,0 0,0"
         inkscape:connector-curvature="0" />
    </g>
    <g
       transform="matrix(3.1475967,0,0,-3.1475967,250.26919,504.44267)"
       id="g6584"
       style="filter:url(#filter4)">
      <path
         id="path6586"
         style="fill:#ed1c24;fill-opacity:1;fill-rule:nonzero;stroke:none"
         d="m 0,0 c -0.209,0 -0.42,0.008 -0.633,0.024 -5.36,0.394 -9.582,2.795 -9.582,10.719 l 0.021,15.06 9.561,0 0.004,-12.419 c 0,-4.224 1.152,-5.738 3.468,-5.738 3.029,0 4.493,2.769 4.493,7.116 l 0.009,11.041 9.414,0 C 16.462,18.413 16.746,7.318 16.983,0.478 l -8.583,0 C 7.923,1.259 7.97,3.689 7.97,3.689 6.581,2.151 3.538,0.001 0,0"
         inkscape:connector-curvature="0" />
    </g>
    <g
       transform="matrix(3.1475967,0,0,-3.1475967,505.34098,503.70298)"
       id="g6588"
       style="filter:url(#filter3)">
      <path
         id="path6590"
         style="fill:#ed1c24;fill-opacity:1;fill-rule:nonzero;stroke:none"
         d="M 0,0 C -0.144,0 -0.223,0.004 -0.223,0.004 -0.32,0.002 -0.416,0 -0.514,0 c -4.275,0 -9.015,2.625 -8.913,8.126 0.133,7.193 7.537,8.324 13.441,8.324 1.834,0 3.105,-0.045 3.105,-0.045 -0.187,3.567 -3.613,3.727 -6.048,3.727 -3.219,0 -7.376,-2.259 -7.376,-2.259 l 0,6.238 c 0.761,0.566 5.007,2.147 9.769,2.147 1.198,0 2.431,-0.1 3.649,-0.343 6.045,-1.203 7.456,-4.664 8.135,-6.136 C 15.925,18.305 15.883,13.118 15.883,13 15.885,4.572 16.116,0.236 16.116,0.236 l -8.21,0 c 0,0 -0.185,0.937 -0.185,3.195 C 5.143,0.203 1.001,0 0,0 z m 4.988,11.349 c -2.3,0 -5.496,-0.545 -5.362,-2.98 0.089,-1.625 1.397,-2.462 2.9,-2.462 2.14,0 4.676,1.697 4.653,5.229 -0.273,0.099 -1.138,0.213 -2.191,0.213"
         inkscape:connector-curvature="0" />
    </g>
    <g
       transform="matrix(3.1475967,0,0,-3.1475967,470.10048,502.92553)"
       id="g6592"
       style="filter:url(#filter2)">
      <path
         id="path6594"
         style="fill:#ed1c24;fill-opacity:1;fill-rule:nonzero;stroke:none"
         d="m 0,0 -9.574,0 -0.002,12.402 c 0,4.227 -1.486,5.697 -3.492,5.697 -3.032,0 -4.59,-2.245 -4.59,-7.077 L -17.642,0 l -9.409,0 -0.016,32.72 9.473,0 0.029,-9.961 c 1.514,1.341 4.186,3.096 7.444,3.096 0.15,0 0.302,-0.004 0.454,-0.012 C -5.425,25.631 0,23.672 0,14.535 L 0,0"
         inkscape:connector-curvature="0" />
    </g>
    <g
       transform="matrix(3.1475967,0,0,-3.1475967,355.3517,503.74705)"
       id="g6596"
       style="filter:url(#filter1)">
      <path
         id="path6598"
         style="fill:#ed1c24;fill-opacity:1;fill-rule:nonzero;stroke:none"
         d="m 0,0 c -6.666,-0.001 -14.733,2.868 -14.733,13.104 0,10.083 7.711,13.058 14.234,13.058 3.204,0 6.121,-0.717 7.697,-1.663 L 6.561,17.358 c -1.288,1.036 -3.266,1.641 -5.23,1.641 -3.251,0 -6.466,-1.656 -6.466,-5.759 0,-4.548 3.45,-6.198 6.88,-6.198 2.099,0 4.191,0.618 5.479,1.567 L 7.471,1.425 C 5.935,0.629 3.121,0 0,0"
         inkscape:connector-curvature="0" />
    </g>
  </g>
</svg>
