<svg width="1425.689" height="1183.367" viewBox="0 0 377.214 313.099"><path d="M-42.69 639.64c-.787-1.309-1.785-8.568-2.216-16.13-.877-15.363-4.605-39.665-6.085-39.665-1.126 0-5.404 10.3-8.346 20.097-2.93 9.758-5.685 14.386-9.372 15.744-5.193 1.913-6.713 1.404-8.324-2.787-3.12-8.12-12.22-22.606-13.258-21.106-.557.803-1.702 6.893-2.545 13.531-2.074 16.332-3.159 19.62-6.72 20.373-1.591.336-4.236.34-5.876.007-3.664-.744-3.855-4.087-1.096-19.158 1.037-5.668 2.25-15.066 2.695-20.883 1.45-18.977 4.009-23.799 12.626-23.799 2.381 0 4.373.954 6.072 2.909 2.85 3.278 11.757 21.07 12.936 25.837 1.01 4.08 2.08 2.949 5.687-6.005 4.046-10.046 13.484-27.764 16.108-30.242 4.342-4.1 12.683-1 14.491 5.386 1.385 4.89 7.273 49.578 8.129 61.688l.847 11.993-3.986 2.295c-5.227 3.01-9.926 2.976-11.767-.085zm38.272-11.322c-3.79-1.267-8.077-5.312-10.403-9.813-1.593-3.083-2.024-8.323-2.024-24.578v-20.66l4.251.017c2.338.009 4.93.366 5.76.793 1.024.528 1.653 7.233 1.962 20.923.525 23.319 1.478 25.865 9.673 25.865 6.94 0 7.725-2.515 7.758-24.856.016-10.472.505-19.634 1.087-20.361 1.445-1.806 8.075-1.671 9.998.203 1.134 1.105 1.449 7.442 1.141 23.005-.475 24.074-1.426 27.14-9.082 29.299-4.798 1.352-16.288 1.445-20.121.163m209.629.31-3.598-.5v-53.855l3.443-1.058c1.894-.583 4.603-.761 6.02-.398l2.576.661-.95 23.092-.95 23.092 4.414.555c2.429.306 7.163.838 10.522 1.183 7.485.768 10.376 2.986 7.22 5.538-1.612 1.303-5.006 1.792-13.623 1.962-6.312.125-13.096.002-15.074-.272M40.2 625.542c-.466-.98-.45-12.16.036-24.843l.882-23.063-5.676-.333c-4.87-.286-5.805-.728-6.59-3.117-.502-1.531-.54-3.264-.086-3.851.457-.59 8.14-1.237 17.178-1.447l16.352-.38v8.462l-5.56.325-5.56.325-.205 6.021c-.113 3.312-.26 14.351-.327 24.532l-.121 18.51-4.74.32c-3.483.236-4.962-.151-5.584-1.46m130.017.714-3.27-.746.345-26.914c.379-29.588.37-29.56 8.51-29.56h3.778l-.942 24.259-.942 24.258 8.012.733c8.573.785 11.365 2.321 10.094 5.557-.597 1.522-2.486 2.187-7.63 2.686-8.26.803-13.59.721-17.955-.273m-96.175-2.497c-5.162-3.59-7.097-12.103-7.226-31.79-.122-18.525.445-20.077 7.142-19.549l4.035.319v19.612c0 17.15.298 19.98 2.37 22.539 1.902 2.35 3.191 2.862 6.532 2.6 6.896-.541 7.96-3.814 8.125-24.998.154-19.786.316-20.233 7.34-20.266 6.37-.03 6.772 1.496 5.791 21.93-.807 16.824-1.231 19.336-4.075 24.157-3.818 6.473-6.998 7.841-18.222 7.841-6.808 0-9.01-.447-11.812-2.395m58.866.354c-11.077-2.148-15.525-9.15-15.498-24.402.027-15.491 7.287-24.328 19.987-24.328 12.94 0 20.08 6.37 20.843 18.595l.48 7.679-4.024 1.682c-2.212.925-8.51 1.989-13.996 2.364l-9.973.681.776 3.274c.426 1.801 2.294 4.355 4.15 5.675 3.032 2.157 4.227 2.33 11.775 1.705 6.938-.575 8.4-.423 8.4.873 0 2.111-3.623 4.51-9.026 5.978-4.894 1.329-7.944 1.378-13.894.224m12.14-27.24c1.756-1.94 1.428-4.747-1.18-10.084-1.515-3.102-4.72-4.443-8.107-3.392-3.495 1.085-6.504 13.498-3.807 15.707 1.71 1.4 11.282-.231 13.094-2.232m95.154 24.626c-9.576-3.412-14.315-10.528-14.245-21.39.088-13.676 9.603-22.61 24.08-22.61 12.73 0 18.307 5.067 18.75 17.037.254 6.866-3.247 8.59-20.526 10.112-4.315.38-7.918 1.26-8.28 2.025-1.088 2.291 3.593 8.884 6.765 9.528 1.63.33 5.239.09 8.02-.535 13.093-2.939 16.887.379 5.385 4.709-7.626 2.87-14.035 3.232-19.949 1.124m14.585-24.035c2.279-1.529 2.239-4.313-.128-8.893-1.562-3.022-2.582-3.668-5.794-3.668-2.143 0-4.751.69-5.795 1.534-2.161 1.748-4.141 10.55-2.775 12.338 1.092 1.428 11.862.454 14.492-1.31M52.05 554.581c-.48-.388-.872-9.816-.872-20.952 0-22.038.593-24.09 6.965-24.09 4.522 0 6.738 1.567 10.243 7.24 3.143 5.09 8.431 9.666 9.847 8.522.497-.402 3.324-4.41 6.283-8.907 3.89-5.912 6.176-8.27 8.257-8.514 4.284-.503 5.026 2.349 5.898 22.684.849 19.779.24 22.064-5.706 21.385l-3.197-.365-.366-13.486c-.202-7.417-.811-13.486-1.355-13.486s-2.875 3.094-5.181 6.875-4.979 6.876-5.94 6.876c-2.246 0-6.142-3.516-10.55-9.52l-3.493-4.76.36 14.28c.2 7.853-.114 14.874-.696 15.601-1.105 1.38-8.982 1.843-10.497.617m-76.82-1.322c-10.14-2.588-14.393-8.112-15.347-19.932-.568-7.022-.265-8.263 3.535-14.505 4.653-7.642 9.588-11.085 17.046-11.894 5.967-.647 11.73 1.698 14.927 6.072 1.874 2.565 1.895 3.064.184 4.213-1.558 1.045-2.582.964-5.173-.409-1.777-.941-4.965-1.711-7.085-1.711-11.173 0-17.542 20.948-8.574 28.2 5.102 4.125 11.968 2.874 15.626-2.846 4.495-7.027 11.01-1.317 6.747 5.912-3.223 5.464-14.089 8.89-21.887 6.9m134.378-.793c-1.193-.965-1.071-43.946.129-45.465.995-1.26 3.312-1.77 7.05-1.553 1.192.069 5.252 3.49 9.023 7.604 7.581 8.27 6.855 8.346 13.074-1.378 3.89-6.082 7.053-7.835 12.59-6.974 2.202.342 2.422 1.971 2.764 20.455.44 23.835.201 25.099-4.669 24.645l-3.551-.331-.832-13.75c-.458-7.563-.91-13.99-1.006-14.28s-1.954 1.763-4.13 4.564c-2.572 3.313-4.714 4.975-6.126 4.755-1.93-.3-7.3-5.355-11.703-11.017-1.247-1.603-1.574 1.284-1.635 14.444-.053 11.307-.568 16.844-1.647 17.717-1.679 1.357-7.886 1.732-9.331.564m63.88-.574c-2.158-.612-4.893-1.794-6.078-2.626-5.311-3.732-6.875-22.871-2.505-30.653 7.384-13.151 27.427-10.152 31.56 4.723 1.489 5.356-.155 9.971-4.104 11.524-1.759.692-6.577 1.368-10.708 1.504-8.136.266-9.287 1.524-6.007 6.564 2.32 3.564 3.85 4.016 11.25 3.326 6.377-.594 6.868-.479 6.868 1.606 0 4.22-11.526 6.511-20.276 4.032m12.186-25.51c.482-4.741-2.554-9.174-6.283-9.174-3.435 0-5.249 3.103-5.249 8.982v4.89l5.56-.325 5.56-.325zM14.557 549.733c-18.851-7.763-14.285-37.126 6.559-42.176 7.121-1.725 13.797.431 18.518 5.982 4.888 5.747 5.823 11.734 3.184 20.382-2.657 8.706-7.438 14.719-13.27 16.689-6.022 2.034-8.235 1.905-14.99-.877m13.612-9.336c4.268-4.101 5.16-6.994 4.413-14.29-.67-6.534-4.226-11.347-8.786-11.892-5.747-.688-10.829 7.84-11.05 18.545-.135 6.468.237 7.86 2.458 9.221 4.313 2.642 9.187 2.047 12.965-1.584m-85.567-56.92c0-3.015 2.825-6.463 5.294-6.463.65 0 .83-1.422.4-3.16-1.578-6.378 5.51-10.494 12.706-7.38 2.848 1.233 3.454 6.198.998 8.183-1.17.947-.69 1.774 2.035 3.508 2.57 1.635 3.455 3.046 3.167 5.054l-.4 2.786-12.1.304-12.1.304zm27.25.444c-1.617-2.87.242-5.849 3.652-5.849.99 0 1.802-.857 1.802-1.904 0-3.995 6-5.93 9.082-2.929.854.833 1.892 4.165 2.305 7.404l.752 5.891h-8.06c-7.302 0-8.198-.246-9.532-2.613m7.634-.208c-.48-.387-.872-.07-.872.706 0 .775.392 1.093.872.705s.48-1.023 0-1.41m-2.969-.176c.37-.485-.158-.881-1.173-.881s-1.544.396-1.174.881.899.882 1.174.882.802-.397 1.173-.882m8.202-.881c-.48-.388-.873-.07-.873.705s.393 1.093.873.705.48-1.022 0-1.41m-7.768-2.05c-.434-.351-1.562-.389-2.507-.083-1.043.337-.733.588.79.639 1.38.046 2.152-.204 1.717-.556m8.424-2.779c-.97-.785-1.141-.372-.572 1.388.463 1.43 1.056 1.91 1.382 1.117.315-.763-.05-1.89-.81-2.505m-4.58-1.518c-.48-.388-.873-.07-.873.705 0 .776.392 1.093.872.706.48-.388.48-1.023 0-1.41m4.36-.752c0-.22-.831-.956-1.846-1.638-1.413-.948-2.074-.94-2.819.034-.594.778-.42.997.448.563.78-.39 1.79-.226 2.241.366.809 1.058 1.976 1.457 1.976.675m13.08 9.92c0-.582.59-1.058 1.31-1.058.719 0 1.307.476 1.307 1.057 0 .582-.588 1.058-1.308 1.058s-1.308-.476-1.308-1.058m62.391.38c-1.045-.844.136-2.496 1.786-2.496.677 0 1.23.714 1.23 1.586 0 1.636-1.543 2.102-3.016.91m4.325-1.309c0-1.092.909-2.596 2.02-3.342 1.332-.893 1.761-2.311 1.259-4.16-.941-3.465 2.935-6.71 7.405-6.198 2.577.295 3.051.965 3.051 4.316 0 4.3.744 4.84 3.27 2.38 1.126-1.097 1.175-1.587.16-1.587-2.361 0-1.733-7.974.822-10.415 3.037-2.902 8.204-3.8 11.304-1.966 1.853 1.098 2.51 2.884 2.616 7.125.11 4.357.82 6.212 3.086 8.054 1.618 1.317 2.943 3.312 2.943 4.434 0 2.82-3.255 3.314-21.911 3.33-14.811.014-16.025-.135-16.025-1.97m5.232-1.187c0-.582-.588-1.058-1.308-1.058s-1.308.476-1.308 1.058.589 1.058 1.308 1.058 1.308-.476 1.308-1.058m9.34-1.093c-1.699-1.144-4.642-2.032-6.541-1.972-3.122.098-3.039.187.865.935 2.375.455 4.73 1.19 5.233 1.635.503.444-.345.557-1.884.252-1.54-.306-3.6-.145-4.579.356-1.147.588.313.905 4.107.893l5.887-.019zm20.198.4c-.834-4.596-10.58-7.183-15.561-4.13-2.042 1.251-2.135 1.767-.667 3.668 1.408 1.822 3.018 2.213 9.128 2.213 6.157 0 7.364-.298 7.1-1.75m-11.878-.365c-.444-.582-.22-1.058.5-1.058s1.672.476 2.117 1.058c.444.582.22 1.058-.5 1.058s-1.672-.476-2.117-1.058m4.479.265c-.055-.437-.302-1.653-.55-2.704-.336-1.434-.037-1.634 1.202-.802.908.609 2.166.754 2.795.323.63-.431.286.118-.764 1.22-1.78 1.867-1.688 1.952 1.351 1.253 2.482-.572 2.792-.486 1.298.36-2.293 1.298-5.189 1.488-5.332.35m1.408-1.851c0-.291-.294-.53-.654-.53s-.654.239-.654.53c0 .29.294.528.654.528s.654-.238.654-.528m-5.887-1.587c.445-.582 1.068-1.058 1.386-1.058s.576.476.576 1.058-.623 1.058-1.385 1.058-1.021-.476-.577-1.058m-11.166-2.598c1.577-1.537.87-3.748-1.198-3.748-.6 0-1.455.767-1.9 1.704-.615 1.295-.256 1.534 1.495.995 1.805-.556 1.962-.43.724.578-1.24 1.01-2.012.996-3.597-.067-1.11-.745-2.018-.899-2.018-.343 0 2.676 4.083 3.23 6.494.881m14.523-2.728c4.05-1.753 3.259-4.375-1.068-3.536-4.541.88-4.47.822-3.488 2.893.97 2.044 1.233 2.081 4.556.643m-3.575-1.726c.48-.387 1.265-.387 1.744 0 .48.388.088.706-.872.706-.959 0-1.351-.318-.872-.706m3.489.177c0-.291.294-.53.654-.53s.654.239.654.53c0 .29-.295.529-.654.529s-.654-.238-.654-.53M70.8 473.312c0-.29-.295-.528-.654-.528s-.654.238-.654.528.294.53.654.53.654-.239.654-.53m18.64-6.555c.54-.244.982-.893.982-1.44 0-1.69-3.48-1.102-6.723 1.136l-3.088 2.132 3.924-.691c2.159-.38 4.366-.892 4.906-1.137m-2.507-1.025c.48-.388 1.265-.388 1.745 0s.087.705-.873.705c-.959 0-1.351-.317-.872-.705m68.896 17.689c0-2.018 1.022-3.693 2.907-4.76 1.599-.906 2.188-1.647 1.308-1.647-.994 0-1.6-1.602-1.6-4.23 0-5.182 3.563-8.462 9.19-8.462 4.567 0 6.91 3.402 6.298 9.146-.207 1.943.515 4.221 1.688 5.323 6.103 5.734 3.615 7.743-9.588 7.743h-10.203zm8.522-.086c.456-.597.05-.954-.903-.794-1.048.176-1.619-.545-1.444-1.825.159-1.163-.038-1.517-.439-.786-.4.73-1.413.996-2.25.59-.944-.457-.88-.096.165.948 1.381 1.379 1.381 1.787 0 2.235-.929.302-.4.586 1.177.632s3.239-.404 3.694-1m10.583.325c-1.975-.409-2.11-.698-.665-1.42 1.602-.8-.406-.817-7.071-.058-.583.067-.695.597-.25 1.179s2.98 1.002 5.636.935c2.656-.068 3.713-.354 2.35-.636m-5.588-1.004c.48-.388 1.264-.388 1.744 0 .48.387.087.705-.872.705-.96 0-1.352-.318-.872-.705m-3.052-2.468c-1.616-.845-1.635-1.029-.11-1.042 1.02-.009 1.5-.302 1.069-.65-1.175-.95-3.736.627-2.866 1.765.414.541 1.454.977 2.31.968.937-.01.776-.425-.403-1.041m7.74-.3c-.3-.164-1.59-.946-2.865-1.736-2.019-1.25-2.212-1.212-1.495.3.453.954 1.742 1.736 2.864 1.736s1.795-.135 1.495-.3m-4.357-8.014c-1.119-1.464-4.275-.437-5.3 1.725-.667 1.405-.335 1.361 1.86-.245 2.718-1.99 3.747-.985 1.37 1.337-.717.7-.353.603.808-.216 1.162-.818 1.73-1.99 1.262-2.601m-8.616 2.496c0-.29-.294-.529-.654-.529s-.654.238-.654.53c0 .29.294.528.654.528s.654-.238.654-.529m0-3.173c0-.29-.294-.529-.654-.529s-.654.238-.654.529c0 .29.294.529.654.529s.654-.238.654-.53m10.465-1.058c0-.29-.294-.529-.654-.529s-.654.238-.654.53c0 .29.294.528.654.528s.654-.238.654-.529m-6.54-2.245c0-1.405-.356-1.478-1.963-.4-1.079.725-1.962 1.497-1.962 1.717s.883.4 1.962.4c1.08 0 1.962-.773 1.962-1.717m4.569-.387c.458-.6-.067-.777-1.231-.416-2.266.703-2.681 1.462-.8 1.462.678 0 1.591-.47 2.03-1.046m17.191 16.835c-6.175-3.928-4.138-11.607 3.79-14.285 11.706-3.955 20.15 7.986 10.146 14.349-4.297 2.733-9.576 2.709-13.936-.064m12.861-2c1.28-1.143 1.965-2.83 1.526-3.757-.462-.972-.253-1.408.495-1.034 2.11 1.054 1.471-1.798-.872-3.89-4.506-4.027-14.84-1.155-14.84 4.123 0 5.945 8.844 8.89 13.691 4.558m-10.37-1.465c-2.993-1.769-1.57-4.243 1.645-2.86 1.226.527 3.296 1.228 4.6 1.557 2.839.716 1.7 2.73-1.545 2.73-1.259 0-3.374-.643-4.7-1.427m5.836-4.391c.895-.873 1.144-1.587.552-1.587s-.37-.571.494-1.27c1.08-.872 1.992-.928 2.92-.176 2 1.616.076 4.62-2.958 4.62-2.196 0-2.364-.266-1.008-1.587m3.924-1.587c0-.582-.623-1.058-1.385-1.058s-1.022.476-.577 1.058c.444.582 1.068 1.058 1.385 1.058s.577-.476.577-1.058m-8.32 1.382c-1.474-1.192-.898-2.44 1.125-2.44 1.08 0 1.962.448 1.962.996 0 1.333-2.042 2.289-3.087 1.444m-8.686 8.075c0-.616.589-.826 1.308-.466s1.309.863 1.309 1.12c0 .256-.59.466-1.309.466-.72 0-1.308-.504-1.308-1.12m24.22-4.287c1.095-6.43-.647-9.755-6.059-11.568-7.487-2.507-16.286 1.014-18.85 7.543-1.132 2.885-4.543 2.556-4.543-.44 0-1.63 1.885-3.692 5.56-6.081 4.768-3.1 6.551-3.615 12.534-3.615 6.225 0 7.385.372 10.792 3.455 2.1 1.9 3.817 4.43 3.817 5.622s.61 3.09 1.354 4.214c1.653 2.497-.446 6.277-3.485 6.277-1.7 0-1.886-.897-1.12-5.407m-215.787.941c-1.12-1.293-2.037-3.169-2.037-4.168s-.589-2.112-1.308-2.472c-1.96-.98-1.576-5.037.728-7.697 3.701-4.273 14.936-2.477 15.2 2.429.173 3.241-6.504 14.259-8.643 14.259-1.047 0-2.82-1.058-3.94-2.351m6.466-2.938c.467-.61-.745-1.05-2.866-1.041-2.853.012-3.236.245-1.712 1.041 2.513 1.313 3.574 1.313 4.578 0m-6.061-9.52c.527 0 1.666.572 2.529 1.27 1.05.85 1.57.887 1.57.113 0-1.86 3.636-2.457 4.455-.732.422.889.184 1.293-.546.929-.711-.356-1.293.436-1.293 1.758 0 2.206.173 2.265 2.097.71 2.43-1.965 1.3-6.631-1.402-5.793-.926.287-2.266.052-2.977-.523-.853-.689-2.497-.209-4.821 1.408-2.699 1.877-3.278 2.95-2.464 4.566.953 1.892 1.107 1.81 1.478-.797.228-1.6.846-2.908 1.374-2.908m66.078 11.157c-.911-1.92.413-3.752 2.71-3.752 2.002 0 3.216 2.025 2.378 3.966-.782 1.812-4.194 1.669-5.088-.214m42.018-2.695c.444-.581 1.068-1.057 1.385-1.057s.577.476.577 1.057c0 .582-.624 1.058-1.386 1.058s-1.021-.476-.576-1.058m-131.029-1.657c-1.09-2.298 1.678-4.458 3.66-2.856 1.674 1.354.636 4.513-1.483 4.513-.764 0-1.744-.746-2.177-1.657m81.576-5.786c-1.297-2.457-2.18-5.953-1.962-7.767.323-2.682 1.046-3.36 3.86-3.624 2.914-.273 3.559-.943 4.066-4.23.73-4.735.59-4.911-2.752-3.464-5.823 2.52-9.081 1.456-13.138-4.288-3.687-5.22-7.837-18.316-6.219-19.624.43-.347 1.613-.074 2.63.608 1.143.767 3.805.987 6.985.575l5.138-.664 4.919 8.701c3.322 5.877 4.663 9.525 4.132 11.238-.709 2.282-.457 2.468 2.516 1.865 1.817-.369 3.38-.262 3.473.237.092.5.268 2.264.39 3.92.23 3.155 2.977 5.067 8.598 5.984 2.562.418 3.359 1.277 3.68 3.966.3 2.505-.125 3.433-1.569 3.433-1.088 0-3.703 1.492-5.812 3.316-3.02 2.613-5.184 3.42-10.204 3.801l-6.371.485zm6.938 1.688c0-.256-.68-.806-1.51-1.22-.936-.468-1.155-.29-.577.466.932 1.219 2.087 1.637 2.087.754m8.002-1.537c1.964-1.48 2.24-2.214 1.052-2.808-1.106-.552-1.274-.365-.538.597.802 1.05.453 1.21-1.394.637-1.355-.42-2.05-.43-1.543-.02s-.1 1.371-1.348 2.137c-1.482.91-1.683 1.405-.579 1.427.93.019 2.887-.868 4.35-1.97m-11.328-1.096c.414-.542.154-1.284-.577-1.65s-1.33.078-1.33.985c0 1.858.786 2.132 1.907.665m4.634.518c0-.257-.68-.806-1.51-1.221-.936-.468-1.155-.29-.577.466.932 1.22 2.087 1.637 2.087.755m0-3.236c0-.29-.294-.529-.654-.529s-.654.238-.654.53c0 .29.295.528.654.528s.654-.238.654-.529m14.429-2.703c.936-1.414.938-2.056.007-2.056-.745 0-1.354.742-1.354 1.649s-.49 1.403-1.09 1.104c-.6-.3-1.09.127-1.09.949 0 1.87 1.736 1.06 3.527-1.646m-17.863 1.324c-.613-.405-1.48-1.133-1.928-1.618s-1.126-.226-1.507.577c-.435.917.28 1.518 1.928 1.618 1.442.088 2.12-.171 1.507-.577m3.434-.736c0-.291-.294-.529-.654-.529s-.654.238-.654.529c0 .29.295.529.654.529s.654-.238.654-.53m9.596-2.927c-.385-.504-.808-.765-.94-.581s-1.103 1.244-2.158 2.356c-1.814 1.91-1.763 1.942.94.581 1.572-.791 2.543-1.852 2.158-2.356m7.41 2.927c0-.291-.294-.529-.654-.529s-.654.238-.654.529c0 .29.294.529.654.529s.654-.238.654-.53m-12.512-2.534c.398-.52-.126-1.21-1.164-1.532q-1.89-.587-1.16.947c.842 1.776 1.322 1.897 2.324.585m-6.758-.804c-.886-.29-2.652-.308-3.924-.04-1.273.269-.549.506 1.61.527 2.158.022 3.2-.198 2.314-.487m5.205-3.802c-.717-.727-1.082-2.422-.81-3.766.272-1.345-.06-2.168-.735-1.83-1.609.803-1.253 5.113.504 6.109 2.07 1.174 2.497.964 1.041-.513m-6.124-9.369c.405-.53.373-1.886-.07-3.014l-.805-2.052-2.55 2.061c-3.096 2.504-5.165 2.65-5.165.362 0-1.086-.718-1.477-1.986-1.084-1.412.438-2.592-.61-4.088-3.633-1.156-2.337-2.345-4.052-2.642-3.813-.714.578 2.016 5.576 5.705 10.445 2.8 3.695 3.192 3.854 6.916 2.804 2.172-.612 4.28-1.546 4.685-2.076m-9.452.808c-.476-.673-.402-.885.164-.472s2.868-.017 5.115-.956c3.563-1.49 3.871-1.5 2.408-.073-2.23 2.174-6.607 3.029-7.687 1.501m-1.754-2.28c0-.291.294-.53.654-.53s.654.239.654.53c0 .29-.294.528-.654.528s-.654-.238-.654-.529m7.949-3.663c.055-.313.285-1.338.512-2.278s-.158-2.368-.856-3.173c-.912-1.052-1.107-.642-.691 1.458.35 1.765.001 2.867-.879 2.784-3.14-.299-4.847.157-4.124 1.102.782 1.024 5.86 1.114 6.038.107m-4.025-4.34c0-.62-.58-2.005-1.29-3.078-1.57-2.37-7.128-1.693-5.978.729.4.843.728 1.97.728 2.505s1.471.971 3.27.971 3.27-.507 3.27-1.127m-7.83-6.277c1.344 0 2.807-.476 3.252-1.058 1.009-1.32.383-1.324-3.84-.026-1.98.61-3.293 1.8-3.203 2.909.142 1.765.187 1.767.75.026.329-1.018 1.697-1.85 3.041-1.85m8.9.529c-.82-1.454-1.997-2.644-2.618-2.644s-.164 1.19 1.014 2.644c1.179 1.454 2.357 2.644 2.619 2.644.261 0-.195-1.19-1.015-2.644m-82.772 36.565c-.968-1.266 1.493-2.52 3.235-1.65 1.463.732.503 2.634-1.329 2.634-.635 0-1.492-.443-1.906-.984m134.611-.166c-1.348-1.763 1.684-3.786 3.489-2.327 1.51 1.221.564 3.477-1.456 3.477-.635 0-1.55-.517-2.033-1.15m-124.856-.45c0-2.72 4.644-8.033 9.635-11.025 3.334-1.998 6.062-4.014 6.062-4.48 0-1.859 10.309-6.347 12.994-5.658 4.48 1.15 3.519 5.843-1.912 9.347-2.61 1.684-4.458 3.752-4.252 4.76.207 1.01-.485 1.781-1.597 1.781-1.08 0-1.88-.833-1.78-1.851.136-1.394-1.317-.846-5.887 2.221-5.353 3.593-13.263 6.518-13.263 4.905m177.906-1.044c0-.873.883-1.587 1.962-1.587 1.08 0 1.963.714 1.963 1.587s-.883 1.587-1.963 1.587c-1.079 0-1.962-.714-1.962-1.587m26.163-.529c0-.582.589-1.058 1.308-1.058s1.308.476 1.308 1.058-.588 1.058-1.308 1.058-1.308-.476-1.308-1.058m23.075-1.791c-1.564-1.265-.845-3.497 1.125-3.497 1.08 0 1.963.685 1.963 1.524 0 1.767-1.867 2.96-3.088 1.973m-249.404-2.472c-.708-1.07-1.287-3.641-1.287-5.716 0-2.074-.588-3.771-1.308-3.771-2.994 0-.883-1.877 5.787-5.146 5.899-2.89 7.553-3.279 9.811-2.301 2.237.967 2.716.868 2.716-.562 0-1.15.7-1.52 2.07-1.095 1.137.353 2.554.642 3.147.642s.748 1.023.344 2.274c-.49 1.512.097 2.765 1.75 3.743 1.762 1.042 2.037 1.696.943 2.243-.85.424-1.73 3.142-1.956 6.04l-.411 5.268-10.16.162c-8.646.138-10.351-.127-11.446-1.781m4.084-.88c.711.907 1.137-.813 1.15-4.64l.02-6.083h10.707l-.448 5.82c-.383 4.974-.116 5.818 1.841 5.817 3.615-.002 3.291-10.622-.38-12.476-1.468-.741-3.325-1.02-4.127-.62-.85.425-1.091.25-.579-.42 1.835-2.4-2.109-2.444-6.421-.07-4.238 2.334-4.494 2.817-4.405 8.296.052 3.2.413 5.168.803 4.375.599-1.217.885-1.217 1.84 0m12.943-.674c0-.291.295-.53.654-.53s.654.239.654.53c0 .29-.294.529-.654.529s-.654-.238-.654-.53m0-2.116c0-.29.295-.529.654-.529s.654.238.654.53c0 .29-.294.528-.654.528s-.654-.238-.654-.529m-14.39-1.057c0-.291.295-.53.655-.53s.654.239.654.53c0 .29-.294.528-.654.528s-.654-.238-.654-.528m14.494-2.204c.062-1.232.372-1.483.79-.64.378.764.331 1.677-.103 2.028-.435.352-.744-.273-.687-1.388m-14.493-3.085c0-.291.294-.529.654-.529s.654.238.654.529c0 .29-.294.529-.654.529s-.654-.238-.654-.53m5.886-3.702c.445-.582 1.103-1.058 1.463-1.058s.29.476-.155 1.058-1.102 1.058-1.462 1.058-.29-.476.154-1.058m3.744 12.164c.512-1.08-.07-1.587-1.823-1.587-1.416 0-2.575.714-2.575 1.587 0 .872.82 1.586 1.823 1.586 1.002 0 2.16-.714 2.575-1.586m.835-5.818q0-2.115-2.616-2.115c-2.521 0-3.545 2.07-1.745 3.525 1.801 1.457 4.36.629 4.36-1.41m126.595 7.871c-6.388-2.803-8.173-9.195-4.27-15.296 2.483-3.883 5.646-5.268 12.036-5.268 6.379 0 10.235 2.183 12.151 6.879 4.07 9.97-8.578 18.66-19.917 13.685m60.293-1.26c-.785-1.6-2.282-4.223-3.326-5.83-3.302-5.083.703-10.324 7.846-10.267 7.855.064 11.35 5.23 6.816 10.077-1.056 1.13-1.94 3.03-1.962 4.222-.098 5.087-7.1 6.43-9.374 1.798m16.854 1.246c-4.572-2.006-4.535-3.802.167-8.057 3.14-2.842 4.69-3.402 9.347-3.38 4.215.02 6.176.62 8.009 2.45 3.559 3.553 3 6.167-1.825 8.546-5.015 2.472-10.704 2.632-15.698.441m1.938-4.229c-.43-1.817-1.078-2.367-1.955-1.658-1.453 1.175-.407 4.377 1.43 4.377.642 0 .878-1.224.525-2.719m5.739 1.077c-.429-.903-.242-1.373.415-1.045s1.447-.004 1.756-.738c.31-.734.317-.181.017 1.23-.473 2.222-.273 2.381 1.499 1.192 2.493-1.673 2.532-2.285.306-4.747-1.432-1.583-2.234-1.708-4.54-.71-2.423 1.048-2.6 1.564-1.321 3.835 1.607 2.852 3.136 3.656 1.868.983m-1.681-3.295c.48-.387 1.264-.387 1.744 0 .48.388.087.706-.872.706-.96 0-1.352-.318-.872-.706m10.336-.582c-1.35-2.267-1.444-2.192-1.527 1.235-.067 2.781.275 3.355 1.439 2.414 1.129-.913 1.152-1.864.088-3.649m6.254 6.84c.011-.436.873-3.648 1.915-7.139 2.628-8.798 2.579-9.32-.74-7.884-3.993 1.728-4.685.343-1.054-2.108 3.942-2.661 7.654-3.704 9.045-2.541.591.494 1.48 2.683 1.976 4.865 1.053 4.634-1.21 5.529-2.674 1.057-.814-2.485-1.326-1.637-3.515 5.818-1.409 4.8-3.105 8.726-3.768 8.726s-1.196-.357-1.185-.793M.16 461.15c0-.582.589-1.058 1.308-1.058s1.309.476 1.309 1.058c0 .581-.589 1.057-1.309 1.057-.719 0-1.308-.476-1.308-1.057m81.105-2.116c0-.582.588-1.058 1.308-1.058s1.308.476 1.308 1.058-.589 1.058-1.308 1.058-1.308-.476-1.308-1.058M69.29 454.01c-5.642-4.806-6.784-7.136-4.895-9.99 1.224-1.85 2.273-2.075 7.133-1.536 3.197.354 6.045.178 6.487-.4 1.258-1.646 6.933-1.192 8.212.656.642.928.904 2.805.58 4.171-.693 2.936-8.97 11.065-11.265 11.065-.877 0-3.69-1.785-6.252-3.966m9.78-2.685c-.454-.594-.187-.76.594-.37s1.79.226 2.242-.365c.452-.592-.033-1.075-1.078-1.075-2.353 0-3.869-2.858-2.008-3.788.75-.375 2.05-.124 2.886.558 1.16.945.9 1.08-1.095.568-2.44-.626-2.455-.588-.23.563 2.723 1.408 2.857 1.348 4.055-1.806.736-1.938.387-2.298-2.126-2.195-1.654.067-3.988.79-5.186 1.607-1.876 1.28-2.604 1.26-5.245-.14-3.98-2.108-6.945-.762-5.64 2.56.522 1.333 2.762 3.762 4.976 5.397 3.734 2.757 4.193 2.85 6.352 1.27 1.28-.938 1.957-2.19 1.503-2.784m-4.247.594c.977-1.032 1.944-2.074 2.147-2.316.204-.243.37.301.37 1.209 0 .907-.966 1.95-2.147 2.316-1.87.58-1.917.423-.37-1.21m-5.331-.818c0-.29.294-.529.654-.529s.654.238.654.53c0 .29-.295.528-.654.528s-.654-.238-.654-.529m3.27-1.586c.445-.582 1.103-1.058 1.462-1.058.36 0 .29.476-.154 1.058-.445.581-1.103 1.057-1.463 1.057s-.29-.476.155-1.057m-4.579-1.474c0-.229.914-.699 2.03-1.045 1.165-.362 1.69-.184 1.231.415-.768 1.005-3.26 1.487-3.26.63m0-2.228c0-.291.295-.53.654-.53s.655.239.655.53c0 .29-.295.528-.655.528s-.654-.238-.654-.528m131.141 10.841c.3-.727 1.036-1.322 1.635-1.322.6 0 1.336.595 1.635 1.322.3.727-.436 1.322-1.635 1.322s-1.935-.595-1.635-1.322m-221.402-.793c0-.582.589-1.058 1.308-1.058s1.308.476 1.308 1.058-.588 1.058-1.308 1.058-1.308-.476-1.308-1.058m69.331-.44c0-.922.932-1.676 2.071-1.676 2.31 0 1.908 2.277-.517 2.931-.855.23-1.554-.335-1.554-1.256m-66.673-2.998c.023-.727.906-2.246 1.962-3.375s1.92-2.923 1.92-3.987c0-1.534-.675-1.796-3.27-1.27-2.058.418-3.27.217-3.27-.543 0-1.772 6.418-11.715 7.561-11.715.537 0 4.159 1.733 8.048 3.85 5.738 3.125 6.72 4.072 5.215 5.025-1.02.645-2.879 2.962-4.128 5.147-3.067 5.363-14.162 10.791-14.038 6.868m6.063-3.614c-.48-.387-.872-.07-.872.706 0 .775.392 1.093.872.705s.48-1.023 0-1.41m4.527-2.203c1.662-1.713 1.606-1.733-.739-.265-2.342 1.467-2.46 1.427-1.557-.528.745-1.615.613-1.824-.557-.886-.843.677-1.138 1.748-.654 2.38 1.16 1.519 1.4 1.47 3.507-.701m-2.783-3.967c0-.29-.294-.529-.654-.529s-.654.238-.654.53c0 .29.294.528.654.528s.654-.238.654-.529m-3.076-4.476c.216-2.824.106-2.805-1.909.334-1.054 1.642-1.016 2.203.15 2.203.86 0 1.652-1.141 1.759-2.537m7 2.36c0-.29-.294-.528-.654-.528s-.654.238-.654.529c0 .29.295.529.654.529s.655-.238.655-.53m-3.924-1.057c0-.29-.294-.529-.654-.529s-.654.238-.654.53c0 .29.294.528.654.528s.654-.238.654-.529m6.362-.928c-.262-.157-2.536-1.363-5.054-2.68-3.51-1.834-3.904-1.908-1.69-.317 1.588 1.142 2.643 2.273 2.345 2.514-.298.242.676.513 2.166.604s2.494.036 2.233-.121m174.16 11.98c0-.611 2.18-1.848 4.844-2.748 5.124-1.73 12.354-1.38 15.535.755 2.887 1.938.7 3.308-2.441 1.53-3.575-2.025-8.387-2.027-13.181-.005-4.458 1.88-4.756 1.91-4.756.468zm-214.533-6.292c0-.582.588-1.058 1.308-1.058s1.308.476 1.308 1.058-.589 1.058-1.308 1.058-1.308-.476-1.308-1.058m45.784-.467c0-.838.522-1.785 1.16-2.103 1.44-.72 4.372 1.975 3.19 2.932-1.557 1.258-4.35.726-4.35-.829m150.764-2.53c.531-3.2.155-4.315-1.79-5.297-3.512-1.774-3.05-3.069 1.377-3.855 2.884-.512 4.049-1.454 4.682-3.786 1.032-3.8 2.36-3.942 4.322-.46 1.11 1.971 2.496 2.644 5.442 2.644 4.42 0 5.029 1.517 1.776 4.424-2.043 1.824-1.994 2.103.79 4.5 4.294 3.695 2.424 5.145-3.966 3.078l-5.24-1.696-2.964 2.252c-4.224 3.208-5.195 2.812-4.429-1.803m12.239-4.143c-.077-1.6-1.554-4.036-3.283-5.414-1.97-1.571-2.841-1.871-2.335-.804.569 1.198-.121 1.89-2.334 2.339-2.777.564-2.976.93-1.717 3.164 1.077 1.912 2.136 2.381 4.353 1.932 1.61-.327 3.322-.08 3.803.549 1.347 1.762 1.664 1.392 1.513-1.766m-8.113-1.485c-.579-.757-.36-.934.576-.467.831.415 1.51.965 1.51 1.221 0 .883-1.154.465-2.086-.754m3.395-.428c0-.907.598-1.35 1.33-.985.73.366.99 1.108.576 1.65-1.121 1.466-1.906 1.193-1.906-.665m21.584 8.645c-8.28-2.918-10.65-9.444-5.617-15.458 3.989-4.766 8.832-6.65 14.779-5.747 6.144.932 9.806 4.821 9.806 10.414 0 5.312-2.803 8.812-8.632 10.782-5.223 1.764-5.354 1.765-10.336.009m10.5-2.561c-.403-.326-1.459 0-2.346.722-1.282 1.045-1.132 1.166.732.592 1.29-.397 2.017-.988 1.614-1.314m-8.977.107c-1.321-.276-3.211-2.006-4.2-3.844-1.248-2.319-1.815-2.72-1.85-1.31-.065 2.58 3.635 5.938 6.365 5.778 1.589-.094 1.514-.242-.315-.624m5.26-1.769c-.38-.802-.15-1.992.514-2.644.85-.837.743-.875-.364-.13-2.323 1.566-3.644 1.291-3.814-.792-.145-1.763-.18-1.763-.75 0-.33 1.018-1.179 1.85-1.888 1.85-.71 0-.887.527-.395 1.171.64.838 1.172.809 1.869-.103.728-.953 1.43-.858 2.78.376q3.388 3.095 2.048.272m7.607-.658c.444-.581.514-1.057.154-1.057s-1.018.476-1.463 1.057c-.444.582-.514 1.058-.154 1.058s1.018-.476 1.463-1.058m-2.617-1.057c.445-.582.22-1.058-.5-1.058-.719 0-1.671.476-2.116 1.058-.445.581-.22 1.057.5 1.057s1.672-.476 2.116-1.057m4.579-2.116c0-.582-.624-1.058-1.386-1.058s-1.021.476-.576 1.058 1.068 1.058 1.385 1.058.577-.476.577-1.058m0-6.136c0-.517-1.325-1.847-2.944-2.955l-2.943-2.015 2.492 2.38c1.74 1.661 1.97 2.38.763 2.38-.95 0-1.334.319-.852.709s-.073 1.936-1.234 3.437l-2.11 2.729 3.414-2.863c1.877-1.574 3.414-3.285 3.414-3.802m-15.698 4.55c0-.291-.294-.53-.654-.53s-.654.239-.654.53c0 .29.294.528.654.528s.654-.238.654-.528m-3.216-2.574c-.475-.62-1.44-1.129-2.145-1.129s-.524.666.404 1.48c1.878 1.648 3.083 1.405 1.74-.351m5.505-.713c0-1.763-.369-2.274-1.023-1.418-.563.737-.721 1.978-.35 2.758.998 2.104 1.373 1.738 1.373-1.34m5.839-2.531c.317-1.745.09-3.173-.506-3.173-.594 0-1.081 1.428-1.081 3.173s.227 3.173.505 3.173.765-1.428 1.082-3.173m2.337 2.644c0-.29-.294-.529-.654-.529s-.654.238-.654.53c0 .29.294.528.654.528s.654-.238.654-.529m-11.175-1.513c.414-.542.253-1.235-.359-1.54-.611-.306-1.111.137-1.111.984 0 1.784.412 1.94 1.47.556m11.175-1.66c0-.29-.294-.529-.654-.529s-.654.238-.654.53c0 .29.294.528.654.528s.654-.238.654-.529m-7.849-1.586c0-.582-.588-1.058-1.308-1.058s-1.308.476-1.308 1.058c0 .581.589 1.057 1.308 1.057s1.308-.476 1.308-1.057m-72.156 13.261c.447-4.537-1.074-6.343-3.104-3.686-.468.612-1.504.937-2.302.722-1.656-.446-1.363-11.357.343-12.778 1.205-1.004 15.484 1.294 16.528 2.66.37.483.268 1.406-.226 2.052-.493.645-1.008 3.033-1.144 5.305-.28 4.655-4.311 9.762-8.069 10.22-2.203.27-2.442-.261-2.026-4.495m6.388-2.705c-.282-3.031-1.928-2.578-1.928.53 0 1.444.478 2.387 1.062 2.095.583-.292.973-1.473.866-2.625m-3.563-3.681c0-.291-.294-.53-.654-.53s-.654.239-.654.53c0 .29.294.529.654.529s.654-.238.654-.53m3.994-3.227c-.634-1.716-1.203-2.326-1.265-1.355-.126 1.97 1.27 5.403 1.968 4.839.247-.2-.07-1.768-.703-3.484m-7.996.544c-.883-.442-1.282-1.804-.886-3.028s.186-1.958-.466-1.632c-.653.326-1.187 1.977-1.187 3.67 0 2.373.475 2.93 2.072 2.435 1.54-.478 1.66-.849.467-1.445m5.31.567c0-.29-.294-.529-.654-.529s-.654.238-.654.53c0 .29.295.528.654.528s.654-.238.654-.529m-3.052-2.291c-.48-.388-1.265-.388-1.744 0-.48.387-.087.705.872.705.96 0 1.352-.318.872-.705m3.052-1.94c0-.29-.294-.528-.654-.528s-.654.238-.654.528.295.53.654.53.654-.239.654-.53m-156.322 14.435c-5.569-.99-6.128-5.067-1.136-8.286 2.926-1.886 3.363-2.656 2.09-3.685-2.356-1.905-1.972-4.449 1.16-7.667 2.137-2.198 3.7-2.772 6.867-2.523l4.1.322v6.302c0 5.18.54 6.738 3.031 8.749 1.8 1.453 2.862 3.405 2.616 4.804-.367 2.088-1.237 2.376-7.609 2.52-3.957.089-8.96-.152-11.119-.536m6.36-2.508c-.36-.47-1.35-.574-2.199-.23-.85.343-.524-.053.724-.881s1.837-1.891 1.308-2.364-.225-.515.675-.097 1.635 1.685 1.635 2.814c0 1.628.88 2.036 4.251 1.97 2.339-.046 3.516-.324 2.617-.617-.9-.294-1.636-.998-1.636-1.566s.736-.684 1.636-.259.495-.277-.899-1.561c-1.393-1.284-3.337-2.086-4.32-1.78-.981.304-1.425.083-.986-.492.45-.59-.717-1.046-2.67-1.046-2.37 0-3.687.67-4.155 2.115-.376 1.164-1.239 2.116-1.917 2.116s-.812-.55-.299-1.221c.578-.757.359-.934-.577-.467-2.279 1.139-1.811 3.59.78 4.088 3.593.69 6.75.418 6.032-.522m3.451-1.35c0-.29.294-.528.654-.528s.654.238.654.529c0 .29-.294.529-.654.529s-.654-.238-.654-.53m-6.54-2.115c0-.29.294-.529.653-.529s.655.238.655.53c0 .29-.295.528-.655.528s-.654-.238-.654-.529m4.44-5.997c-.66-.864-.19-1.005 1.558-.466 1.894.583 2.138.472 1-.454-.875-.714-2.723-.913-4.423-.476-2.279.584-2.524.953-1.113 1.675 2.57 1.316 4.09 1.174 2.978-.279m.792-5.199c0-.496-.98-.597-2.177-.226-1.533.476-1.876.282-1.16-.654.559-.731 2.127-1.095 3.485-.808 1.357.287 2.468.09 2.468-.436 0-1.577-4.199-1.086-6.764.791-3.293 2.41-2.996 3.338.878 2.74 1.798-.278 3.27-.911 3.27-1.407m138.662 15.956c0-.582.589-1.058 1.309-1.058.719 0 1.308.476 1.308 1.058s-.589 1.058-1.309 1.058c-.719 0-1.308-.476-1.308-1.058m-109.883-5.426c-3.957-2.93-8.815-6.274-10.794-7.429l-3.6-2.1 1.26 2.68c.694 1.475.757 2.932.141 3.24-1.385.692-5.656-7.653-4.614-9.016 1.018-1.332 12.374-1.268 12.374.07 0 .581-1.618 1.06-3.597 1.064l-3.597.007 6.54 4.485c12.024 8.243 17.054 12.373 15.044 12.35-1.08-.011-5.2-2.42-9.157-5.35zm59.546.402c-.509-2.764-1.525-5.614-2.258-6.334-.952-.936-.695-1.508.903-2.003 1.662-.516 2.043-1.469 1.488-3.715-.661-2.672-.373-3.02 2.49-3.02 1.78 0 3.238.499 3.238 1.11 0 .737.752.77 2.24.096 1.625-.735 3.938-.32 8.41 1.514 6.814 2.791 8.789 4.525 6.473 5.682-1 .5-1.233 2.247-.675 5.07 1.082 5.472-1.168 6.624-12.943 6.624h-8.44zm13.71 1.322c0-.873-.883-1.587-1.963-1.587-1.079 0-1.962.714-1.962 1.587s.883 1.587 1.962 1.587c1.08 0 1.963-.714 1.963-1.587m0-5.818q0-2.115-2.617-2.115t-2.616 2.115 2.616 2.116 2.617-2.116m18.968 8.827c-1.44-.246-3.98-.683-5.645-.972-2.237-.388-2.92-1.137-2.616-2.868.363-2.068 1.306-2.38 8.044-2.662 7.407-.31 12.133 1.066 10.59 3.084-.892 1.167-11.028 1.252-11.028.093 0-.465 2.208-.673 4.906-.461 3.708.29 4.426.114 2.943-.725-2.608-1.475-11.382-1.451-12.517.034-1.427 1.867 2.156 3.02 9.434 3.038 4.729.012 6.947-.446 7.466-1.54 1.44-3.035-2.847-4.785-11.998-4.896l-8.736-.106 5.232-1.005c5.558-1.067 13.314-.37 16.025 1.441.9.601 1.635 2.236 1.635 3.634 0 3.638-5.754 5.276-13.735 3.911M.908 433.043c-1.13-.914-2.056-2.489-2.056-3.5 0-1.01-.864-2.761-1.92-3.89-4.92-5.26-.56-12.314 7.612-12.314 8.387 0 12.55 5.199 8.239 10.29-.972 1.147-2.197 3.511-2.722 5.253-1.74 5.777-5.207 7.352-9.153 4.161m4.485-.982c0-.29-.294-.529-.654-.529s-.654.238-.654.529c0 .29.294.529.654.529s.654-.238.654-.529m1.962-3.702c.46-.602-.666-1.058-2.616-1.058s-3.077.456-2.616 1.058c.444.582 1.622 1.058 2.616 1.058s2.171-.476 2.616-1.058m-7.195-4.76c0-.29-.294-.529-.654-.529s-.654.238-.654.53c0 .29.295.528.654.528s.654-.238.654-.529m11.774-4.792c0-.959-1.472-2.286-3.27-2.948-2.71-.998-3.271-.929-3.271.405 0 .916.929 1.476 2.153 1.3 1.185-.171 2.439.35 2.786 1.158.386.896.056 1.181-.845.731-.967-.483-1.463.288-1.436 2.233.04 2.84.125 2.881 1.962.918 1.056-1.13 1.92-2.838 1.92-3.797m-12.557 1.729c-.387-.815.641-2.237 2.295-3.173 1.647-.933 2.388-1.697 1.646-1.697-2.004 0-5.298 2.387-6.204 4.496-.517 1.202-.137 1.85 1.084 1.85 1.072 0 1.579-.634 1.18-1.476m6.016-1.697c0-.581-.589-1.057-1.308-1.057s-1.308.476-1.308 1.057c0 .582.588 1.058 1.308 1.058s1.308-.476 1.308-1.058m139.458 4.102c-2.126-7.612-2.625-11.506-1.476-11.506.345 0 3.017.774 5.938 1.719 3.221 1.042 7.083 1.485 9.814 1.127 5.449-.715 6.63.499 4.51 4.636-1.582 3.089-3.446 3.828-11.079 4.392-3.58.265-3.888.591-3.514 3.728.752 6.291-2.058 3.546-4.193-4.096m18.986 3.987c-1.59-1.55-.688-2.8 2.02-2.8 1.95 0 2.388 2.727.585 3.628-.638.319-1.81-.054-2.605-.828m-81.591-1.29c-4.299-1.885-4.587-4.483-.856-7.722 5.692-4.939 14.947-5.368 18.841-.873 3.299 3.808 2.453 6.505-2.659 8.476-5.636 2.173-10.557 2.211-15.326.12m1.635-4.366c0-2.127-.378-2.55-1.482-1.657-.815.659-1.128 1.944-.695 2.855 1.198 2.524 2.177 1.985 2.177-1.198m9.811-.846c0-2.407-.597-3.173-2.474-3.173-3.093 0-5.414 2.83-4.28 5.219.537 1.132 1.955 1.678 3.805 1.466 2.312-.266 2.95-1.025 2.95-3.512m-5.887 2.116c0-.291.295-.53.655-.53s.654.239.654.53c0 .29-.295.528-.654.528s-.655-.238-.655-.528m3.925 0c0-.291.294-.53.654-.53s.654.239.654.53c0 .29-.294.528-.654.528s-.654-.238-.654-.528m-3.185-2.973c.375-.789 1.539-1.435 2.587-1.435 2.563 0 2.4.417-.68 1.75-2.03.879-2.44.81-1.907-.315m11.034.924c0-.767-.78-1.917-1.731-2.556-1.386-.93-1.618-.535-1.162 1.975.545 3.004 2.893 3.475 2.893.581m-67.01 4.102c-4.345-1.907-6.246-4.588-6.246-8.81 0-7.027 6.04-11.754 15.02-11.754 3.565 0 5.79.797 8.627 3.092 11.003 8.897-3.577 23.537-17.4 17.472m89.248-1.525c0-.581-2.628-1.057-5.84-1.057-6.387 0-8.55-1.726-8.55-6.822 0-3.802 7.433-10.075 13.103-11.058 5.266-.912 10.068.449 11.13 3.154.815 2.076-2.211 8.767-4.477 9.9-.793.395-1.442 2.12-1.442 3.83 0 2.06-.662 3.111-1.962 3.111-1.079 0-1.962-.476-1.962-1.058m1.993-4.247c-.275-1.754.022-2.928.66-2.61 1.273.637 5.196-4.83 5.196-7.24 0-3.086-3.305-3.98-6.32-1.708-2.94 2.215-4.07 1.359-1.232-.935 1.268-1.026.746-1.056-2.49-.144-4.968 1.4-9.06 4.73-7.05 5.736.767.383 1.394.134 1.394-.554 0-.88.643-.82 2.175.202 1.618 1.08 2.31 1.128 2.7.19.573-1.375 4.282-.67 4.282.813 0 .501-.883.637-1.962.303-1.08-.335-1.962-.054-1.962.624 0 .734-.662.89-1.635.385-.9-.467-2.96-.874-4.579-.905-2.336-.045-2.943.527-2.943 2.772 0 3.949 3.102 5.845 7.134 4.36 2.447-.902 3.475-.82 4.7.373 2.227 2.17 2.495 1.94 1.932-1.662m-11.804.016c-.445-.581-.22-1.057.5-1.057s1.672.476 2.116 1.057c.445.582.22 1.058-.5 1.058-.719 0-1.671-.476-2.116-1.058m3.87-2.185c-.474-.62-.581-1.355-.238-1.633.343-.277.972.23 1.398 1.129.884 1.863.13 2.191-1.16.504m4.633.599c0-.291.294-.529.654-.529s.654.238.654.529c0 .29-.294.529-.654.529s-.654-.238-.654-.53m-9.157-2.116c0-.29.294-.528.654-.528s.654.238.654.528-.294.53-.654.53-.654-.239-.654-.53m9.157 0c0-.29.294-.528.654-.528s.654.238.654.528-.294.53-.654.53-.654-.239-.654-.53m3.924-1.586c0-.776.393-1.093.872-.705.48.388.48 1.022 0 1.41s-.872.07-.872-.705m.6-3.244c-1.407-1.842.196-2.232 1.99-.484 1.032 1.005 1.131 1.612.264 1.612-.765 0-1.78-.507-2.253-1.128m1.238-3.266c-.579-.757-.36-.934.576-.466.831.415 1.51.964 1.51 1.22 0 .883-1.154.465-2.086-.754m44.41 14.162c-1.79-.927-4.275-8.247-3.958-11.658.253-2.723 2.85-4.416 6.814-4.44 1.82-.01 2.734-.77 2.884-2.396.27-2.927 4.98-6.199 7.708-5.352 1.474.457 1.802 1.519 1.23 3.983-.612 2.637-.144 3.833 2.178 5.564 1.626 1.213 4.134 2.375 5.573 2.583 1.87.271 2.734 1.358 3.027 3.808.358 2.995.017 3.429-2.69 3.429-1.704 0-5.093 1.19-7.531 2.644-4.374 2.61-11.975 3.525-15.236 1.835m14.807-3.822c3.645-2.48 4.382-2.772 6.968-2.772.72 0 1.308-.714 1.308-1.587s-1.067-1.587-2.371-1.587-4.012-1.384-6.017-3.076c-3.078-2.598-3.502-3.626-2.723-6.61.771-2.958.632-3.31-.851-2.16-1.847 1.432-1.994 1.811-2.264 5.816-.143 2.139-.716 2.38-4.741 2-5.158-.487-5.545-.075-2.35 2.508 2.098 1.697 2.057 1.758-.706 1.049-2.686-.69-2.857-.5-2.026 2.24.5 1.646 1.372 3.143 1.94 3.326s.708 1.016.312 1.851c-1.289 2.715 9.203 1.94 13.521-.998m-10.691.4c.444-.581 1.102-1.057 1.462-1.057s.29.476-.154 1.058c-.445.582-1.103 1.057-1.463 1.057s-.29-.475.155-1.057m7.194-.528c0-.291.295-.529.654-.529s.654.238.654.529c0 .29-.294.529-.654.529s-.654-.238-.654-.53m-3.488-1.234c.48-.388 1.264-.388 1.744 0s.087.705-.872.705c-.96 0-1.352-.317-.872-.705m6.457-1.337c.105-1.123.631-1.822 1.17-1.553s.648 1.188.243 2.042c-1.022 2.154-1.639 1.94-1.413-.49m6.188-1.66c0-.29.295-.529.654-.529s.654.238.654.529c0 .29-.294.529-.654.529s-.654-.238-.654-.529m-15.697-2.115c0-.291.294-.53.654-.53s.654.239.654.53c0 .29-.295.528-.654.528s-.654-.238-.654-.528m4.587-.517c-.458-.6.067-.777 1.231-.416 2.266.703 2.681 1.461.8 1.461-.678 0-1.591-.47-2.03-1.045m4.57-.075c0-.616.588-.826 1.308-.466s1.308.863 1.308 1.12-.589.466-1.308.466-1.308-.504-1.308-1.12m9.156 10.64c0-.582.59-1.058 1.309-1.058.72 0 1.308.476 1.308 1.058s-.589 1.058-1.308 1.058-1.309-.476-1.309-1.058m-119.797-2.601c-.98-3.157-.903-3.142-5.766-1.109-4.31 1.803-7.529 1.207-10.78-1.997-3.066-3.02-2.886-3.813.867-3.813 2.224 0 4.296-1.27 6.867-4.208 2.025-2.315 4.076-4.218 4.557-4.23.717-.02 2.903 4.821 7.02 15.544.272.709-.052 1.561-.719 1.894-.667.334-1.588-.603-2.046-2.081m-9.128-2.282c1.555-.483 1.737-1.01.698-2.022-1.012-.985-.965-1.589.169-2.155.941-.47 1.233-.34.725.324-1.067 1.396 2.11 2.46 4.211 1.41 1.152-.575 1.206-1.55.204-3.68l-1.362-2.9L66.1 410.3c-1.86 1.788-4.285 3.25-5.389 3.25-1.635 0-1.705.294-.377 1.587 1.87 1.823 1.733 1.795 4.504.935m3.344-4.108c0-.29.295-.529.654-.529s.655.238.655.53c0 .29-.295.528-.655.528s-.654-.238-.654-.529m-83.943 7.4c-.362-.292-6.173-1.485-12.914-2.65s-12.752-2.518-13.358-3.008c-1.807-1.461 1.76-6.35 5.427-7.439 1.874-.556 2.672-1.049 1.773-1.094-2.928-.15-1.857-6.347 1.575-9.123 3.459-2.796 9.586-3.461 12.226-1.327 1.89 1.53 2.073 8.687.289 11.382-.953 1.44-.72 2.302.905 3.368 1.549 1.016 1.897 1.046 1.196.102-1.321-1.778.12-5.203 2.5-5.942 4.546-1.41 9.581 3.063 7.31 6.495-.84 1.268-.69 2.47.47 3.751 2.637 2.917.995 6.018-3.186 6.018-1.955 0-3.85-.24-4.213-.532m2.839-3.273-3.27-1.615 3.131.536c2.237.383 2.73.21 1.723-.603-.774-.627-2.478-.804-3.785-.394-2.267.71-2.26.815.162 2.256 1.396.83 3.162 1.494 3.924 1.473s-.086-.764-1.885-1.653m-5.669-.072c-.48-.388-1.264-.388-1.744 0s-.087.705.872.705c.96 0 1.352-.317.872-.705m-1.491-2.264c-.403-.326-1.458 0-2.346.722-1.282 1.045-1.132 1.166.732.592 1.29-.397 2.017-.988 1.614-1.314m-8.538-.204c-1.079-.564-2.845-1-3.924-.967-1.294.038-1.071.367.654.967 3.596 1.25 5.662 1.25 3.27 0m-6.902-3.194c-.212-2.28-1.603-2.745-2.947-.986-1.153 1.508.373 4.464 1.908 3.697.679-.339 1.146-1.56 1.04-2.711m-2.255 1.078c0-.775.393-1.093.873-.705s.48 1.023 0 1.41c-.48.388-.873.071-.873-.705m20.93 1.587c0-.29-.294-.529-.653-.529s-.655.238-.655.529c0 .29.295.529.655.529s.654-.238.654-.529m-5.886-1.587c.445-.581.22-1.057-.5-1.057s-1.672.476-2.116 1.057c-.445.582-.22 1.058.5 1.058.719 0 1.671-.476 2.116-1.058m-5.015-.705c-.48-.388-1.264-.388-1.744 0s-.087.705.872.705c.96 0 1.352-.317.872-.705m12.575-2.51c-.384-1.186-.99-1.92-1.347-1.632-.708.572.542 3.79 1.472 3.79.315 0 .259-.971-.125-2.158m3.56 1.629c0-.291-.295-.53-.655-.53s-.654.239-.654.53c0 .29.294.529.654.529s.654-.238.654-.53m-14.39-1.587c0-.582-1.914-1.001-4.252-.932l-4.251.125 3.924.807c2.159.444 4.072.864 4.252.933s.327-.351.327-.933m15.697-.4c0-.219-1.03-1.052-2.289-1.85-2.075-1.316-2.121-1.278-.494.4 1.709 1.761 2.783 2.321 2.783 1.45m-16.293-3.73-2.559-.81 2.559-1.205c2.333-1.1 2.242-1.188-1.04-1.002-5.457.31-4.62 4.05.873 3.9l2.725-.075zm-7.253-1.687c0-.291-.295-.53-.654-.53s-.654.239-.654.53c0 .29.294.529.654.529s.654-.238.654-.53m11.773-2.116c0-.29-.294-.529-.654-.529s-.654.238-.654.53c0 .29.294.528.654.528s.654-.238.654-.529m-7.849-2.764c0-.707 1.569-.992 3.925-.712 2.158.256 3.924.072 3.924-.409 0-1.523-7.458-.943-9.157.712-1.125 1.096-1.175 1.587-.16 1.587.807 0 1.468-.53 1.468-1.178m2.616.649c0-.291-.294-.53-.654-.53s-.654.239-.654.53c0 .29.295.529.654.529s.654-.238.654-.53m2.617 0c0-.291-.295-.53-.654-.53s-.654.239-.654.53c0 .29.294.529.654.529s.654-.238.654-.53m-15.698 19.568c0-.582.589-1.058 1.308-1.058s1.308.476 1.308 1.058-.588 1.057-1.308 1.057-1.308-.475-1.308-1.057m120.349-3.87c0-2.27 8.663-4.84 13.544-4.02 5.392.908 10.301 3.47 9.26 4.832-.527.69-1.607.524-2.985-.458-3.82-2.72-9.592-3.05-14.914-.853-3.99 1.647-4.905 1.74-4.905.499m-84.338-2.853c-1.514-.895-2.107-2.101-1.58-3.213s.082-2.016-1.193-2.412c-1.395-.433-1.793-1.42-1.26-3.133.655-2.111.284-2.5-2.38-2.5-3.368 0-5.142-2.16-3.908-4.76.779-1.641 2.038-1.975 6.142-1.627 1.319.111 3.118-.593 3.997-1.566 2.311-2.555 7.883-1.667 8.412 1.342.46 2.623 4.16 3.329 4.16.793 0-.926 1.226-1.607 2.943-1.636 2.216-.037 1.395-.701-3.321-2.686-10.252-4.314-11.77-11.462-2.465-11.607 2.227-.035 5.201-.906 6.609-1.936 1.407-1.03 3.932-1.716 5.61-1.524 4.51.517 4.834 7.192.67 13.836-1.732 2.763-2.56 5.024-1.841 5.024 1.492 0 .498 7.566-1.574 11.973-1.04 2.213-2.202 2.835-5.29 2.835-2.51 0-3.957.539-3.957 1.474 0 2.78-5.947 3.586-9.774 1.323m6.913-3.061c-.367-2.13.076-2.346 4.224-2.058l4.633.322 2.139-5.41c1.86-4.703 1.89-5.486.224-6.002-1.054-.327-2.97.177-4.26 1.12-1.288.943-3.255 1.715-4.369 1.715-2.5 0-5.46-2.724-4.429-4.074.418-.546-.12-1.266-1.195-1.6-1.829-.567-2.453.58-2.324 4.268.045 1.282-3 .774-5.787-.965-.868-.541-2.193-.677-2.944-.302-1.563.781-1.858 2.736-.384 2.548 2.37-.303 4.208.24 6.165 1.824 1.622 1.311 1.756 2.034.588 3.173-1.229 1.197-.868 1.474 1.917 1.474 3.864 0 4.518 1.519 1.284 2.982-2.678 1.212-1.203 3.365 2.306 3.365 1.967 0 2.519-.594 2.212-2.38m6.785-3.438c0-.29.295-.529.654-.529s.654.238.654.53c0 .29-.294.528-.654.528s-.654-.238-.654-.529m-2.616-1.058c0-.29.294-.528.654-.528s.654.238.654.528-.294.53-.654.53-.654-.239-.654-.53m-10.029-1.234c.48-.387 1.265-.387 1.744 0 .48.388.087.706-.872.706-.96 0-1.352-.318-.872-.706m7.413-.881c0-.29.294-.529.654-.529s.654.238.654.529c0 .29-.294.529-.654.529s-.654-.238-.654-.529m3.679-.194c.944-.305 2.072-.268 2.507.084.435.351-.338.601-1.717.555-1.524-.05-1.834-.301-.79-.639m-11.092-1.04c.48-.388 1.265-.388 1.744 0s.087.705-.872.705c-.96 0-1.352-.317-.872-.705m9.157-1.058c.48-.388 1.264-.388 1.744 0s.087.705-.872.705c-.96 0-1.352-.317-.872-.705m-5.669-.881c0-.291.295-.53.654-.53s.654.239.654.53c0 .29-.294.529-.654.529s-.654-.238-.654-.53m9.157 13.221c0-.581.589-1.057 1.308-1.057s1.309.476 1.309 1.057c0 .582-.59 1.058-1.309 1.058s-1.308-.476-1.308-1.058m94.186-.528c0-.873.589-1.587 1.308-1.587s1.308.714 1.308 1.587c0 .872-.588 1.586-1.308 1.586s-1.308-.714-1.308-1.586m40.653-2.21c-3.394-2.309-4.025-3.483-4.025-7.485 0-3.837.733-5.34 3.824-7.84 7.195-5.817 19.928-3.101 21.723 4.634 2.456 10.587-11.492 17.515-21.522 10.691m10.85-.988c.59-1.244.249-1.397-1.496-.672-4.025 1.673-9.323-1.358-9.413-5.386-.055-2.434 1.114-2.335 4.713.399 2.926 2.222 4.242 2.168 8.591-.354 2.834-1.644 4.564-.348 2.378 1.78-.91.888-1.197 1.613-.638 1.613.56 0-.048.952-1.35 2.115-2.969 2.653-1.96 2.75 1.724.168 2.994-2.1 4.981-9.687 2.538-9.687-.786 0-1.034-.318-.553-.708 1.204-.973-3.117-4.675-4.595-3.936-.655.327-1.932.098-2.838-.51-1.986-1.333-10.607 2.462-9.345 4.112.438.573.172 1.042-.59 1.042-2.467 0-1.52 6.888 1.282 9.32 3.075 2.668 8.47 3.064 9.591.704m-3.429-6.494c.9-.293 2.371-.293 3.27 0 .9.294.164.534-1.635.534s-2.534-.24-1.635-.534m-4.905-2.27c0-.47.765-1.702 1.7-2.736 1.585-1.752 1.806-1.694 3.242.855 1.433 2.543 1.313 2.736-1.7 2.736-1.783 0-3.242-.385-3.242-.855m6.4-1.539c-.837-1.3-1.088-2.039-.556-1.64.53.4 2.315.311 3.965-.196 2.513-.773 3.09-.54 3.557 1.439.795 3.363-4.851 3.685-6.966.397m-1.168-4.014c0-.616.589-.826 1.308-.467.72.36 1.308.864 1.308 1.12s-.588.467-1.308.467-1.308-.504-1.308-1.12M23.707 407.733c0-.97.588-1.604 1.308-1.41 1.539.415 1.458 1.682-.164 2.556-.63.34-1.144-.176-1.144-1.146m68.35.851c-3.503-.376-4.252-.918-4.252-3.081 0-1.444 1.38-3.74 3.066-5.104 2.307-1.865 2.915-3.303 2.46-5.811-1.092-6.014 6.977-9.913 12.04-5.818 2.278 1.841 2.659 5.45.823 7.796-.833 1.064-.235 2.446 1.982 4.576 3.184 3.06 4.03 5.528 2.195 6.408-1.712.82-13.895 1.509-18.314 1.034m-35.647-1.38c0-.581.554-1.057 1.231-1.057s1.595.476 2.04 1.057c.444.582-.11 1.058-1.231 1.058-1.122 0-2.04-.476-2.04-1.058m132.37-3.966c.243-1.018 1.309-1.851 2.368-1.851 1.06 0 2.125.833 2.367 1.851.31 1.299-.397 1.851-2.367 1.851s-2.676-.552-2.367-1.851m-167.095-1.803c-4.235-3.424-4.17-7.955.176-12.13 2.805-2.696 4.343-3.255 8.954-3.255 7.086 0 10.492 2.755 10.492 8.487 0 8.597-12.211 12.89-19.622 6.898m7.254 1.047c0-.27-1.324-1.01-2.943-1.645l-2.943-1.153 2.539 1.645c2.669 1.729 3.347 1.962 3.347 1.153m2.617-.037c0-.291-.295-.53-.654-.53s-.655.239-.655.53c0 .29.295.529.655.529s.654-.238.654-.53m4.929-2.645c.898-1.163 1.425-2.115 1.171-2.115s-1.528.952-2.83 2.115-1.83 2.116-1.172 2.116 1.932-.952 2.83-2.116m-14.086-1.586c0-.291-.295-.53-.654-.53s-.654.239-.654.53c0 .29.294.529.654.529s.654-.238.654-.53m3.884-4.231c0-.582-.57-.344-1.268.529-.698.872-1.268 2.062-1.268 2.644s.57.344 1.268-.529c.697-.872 1.268-2.062 1.268-2.644m9.197 3.173c0-.29-.294-.529-.654-.529s-.654.238-.654.53c0 .29.294.528.654.528s.654-.238.654-.529m-13.081-1.058c0-.29-.295-.529-.654-.529s-.654.238-.654.53c0 .29.294.528.654.528s.654-.238.654-.529m16.59-2.842c-.417-.844-.727-.593-.79.639-.056 1.115.253 1.74.688 1.388.434-.351.48-1.264.103-2.027m-2.637-.507c-.48-.388-.872-.07-.872.705 0 .776.392 1.093.872.705s.48-1.022 0-1.41m-13.953.176c0-.29-.295-.529-.654-.529s-.654.238-.654.53c0 .29.294.528.654.528s.654-.238.654-.529m4.981-2.576c-.87-1.126-2.046-1.814-2.614-1.53s-.303 1.187.589 2.006c2.412 2.217 3.845 1.88 2.025-.476m6.356 1.342c-.48-.388-1.265-.388-1.744 0s-.088.705.872.705c.959 0 1.351-.317.872-.705m4.36-.881c0-.291-.294-.53-.654-.53s-.654.239-.654.53c0 .29.294.529.654.529s.654-.238.654-.53m-3.052-2.292c-.48-.388-1.265-.388-1.744 0s-.087.705.872.705c.96 0 1.352-.317.872-.705m-3.924-1.058c-.48-.388-1.265-.388-1.745 0s-.087.705.872.705c.96 0 1.352-.317.873-.705m13.844 15.87c-2.85-.929-1.804-5.384 1.802-7.678 2.786-1.771 3.138-2.476 1.862-3.72-2.379-2.317-1.144-5.944 2.839-8.34 3-1.804 4.084-1.947 6.904-.908 4.21 1.55 5.377 3.944 3.688 7.563-1.18 2.526-.914 3.015 2.49 4.595 4.935 2.29 4.765 7.12-.29 8.249-3.821.852-16.918 1.015-19.295.24m16.462-2.357c-.402-2.775.298-3.492 2.179-2.23 1.097.736 1.962.85 1.962.257 0-1.684-6.8-3.506-11.524-3.087-2.378.21-5.32 1.238-6.538 2.284s-1.478 1.568-.579 1.161c.9-.407 1.635-.276 1.635.292 0 .567-.735 1.259-1.635 1.536s2.017.488 6.48.468c4.462-.02 8.072-.326 8.02-.68m-5.016-1.701c0-.291.295-.53.654-.53s.654.239.654.53c0 .29-.294.528-.654.528s-.654-.238-.654-.528m-6.54-1.058c0-.291.294-.53.654-.53s.654.239.654.53c0 .29-.295.529-.654.529s-.654-.238-.654-.53m7.677-6.18c.801-.78 1.07-1.732.596-2.115-.473-.383-.174-.696.665-.696 1.905 0 2.02-3.86.144-4.797-5.3-2.648-12.072 4.644-7.063 7.606 3.008 1.778 3.835 1.779 5.658.003zm-6.37-2.282c0-.29.295-.529.655-.529s.654.238.654.529c0 .29-.295.529-.654.529s-.654-.238-.654-.529m3.925-.466c0-.548.582-1.287 1.293-1.642.742-.37.961.054.514.995-.87 1.833-1.807 2.168-1.807.647m-2.616-2.178c0-.582.623-1.058 1.385-1.058s1.022.476.577 1.058c-.445.581-1.068 1.057-1.385 1.057-.318 0-.577-.476-.577-1.057m3.924-1.587c0-.29.295-.529.654-.529s.654.238.654.53c0 .29-.294.528-.654.528s-.654-.238-.654-.529m111.915 17.543c-.421-.551-.208-1.28.473-1.621.682-.34 1.584-.169 2.005.382.421.552.208 1.281-.473 1.622-.682.34-1.584.168-2.005-.383m-45.854-.78c-9.382-1.002-9.544-1.11-11.148-7.358-1.755-6.834-.714-8.464 4.705-7.364 1.957.397 8.138.819 13.733.936s10.608.565 11.137.993c.53.428-.766 3.518-2.879 6.866-4.09 6.482-5.462 7.004-15.548 5.927m9.56-5.128.171-3.702-6.173-.016c-6.44-.017-9.27-.836-9.086-2.628.06-.582-.964-1.225-2.277-1.43-2.042-.318-2.264.121-1.542 3.041.464 1.877.844 4.275.844 5.33 0 1.962 2.678 2.558 13.197 2.938 4.502.162 4.7.018 4.865-3.533m-4.981 1.12c0-.907.588-1.649 1.308-1.649s1.308.448 1.308.995c0 .548-.589 1.29-1.308 1.65s-1.308-.089-1.308-.996m-8.125-.751c-1.202-.617-.935-.875.93-.898 2.17-.027 2.281-.207.654-1.058-1.233-.644-1.371-1.03-.373-1.041.874-.01 2.167.856 2.872 1.923 1.402 2.117-.88 2.717-4.083 1.074m-2.34-2.484c0-.291.294-.53.654-.53s.654.239.654.53c0 .29-.295.528-.654.528s-.655-.238-.655-.528m-2.617-4.231c0-.291.295-.53.654-.53s.654.239.654.53c0 .29-.294.529-.654.529s-.654-.238-.654-.53m23.937 1.552c.61-1.886.041-2.065-6.072-1.903-5.884.155-6.102.231-1.704.599 4.54.38 4.98.678 4.43 3.005-.468 1.982-.229 2.327 1.031 1.481.903-.606 1.945-2.038 2.315-3.182m31.41 2.399c-4.954-4.985-6.183-8.027-4.356-10.787 1.544-2.332 5.294-2.78 9.184-1.097 1.58.684 3.605.7 5.729.048 2.532-.778 3.94-.58 6.147.864l2.862 1.875-2.32 3.954c-2.214 3.772-9.25 9.125-11.996 9.125-.711 0-3.074-1.792-5.25-3.982m3.735-.592c-1.57-1.352-2.458-2.78-1.972-3.173s.197-.715-.642-.715c-.84 0-1.526.326-1.526.725 0 .85 5.384 5.621 6.343 5.621.36 0-.632-1.106-2.203-2.458m7.496-2.656c-.653-.195-.776-.91-.274-1.587s-.083-.579-1.3.22c-1.75 1.148-2.213 1.166-2.213.088 0-.75-.335-1.093-.745-.761-.41.33-.017 1.544.873 2.696 1.226 1.588 2.009 1.805 3.232.897.888-.66 1.08-1.358.427-1.553m-2.48.354c0-.29.295-.528.655-.528s.654.238.654.528-.294.53-.654.53-.654-.239-.654-.53m-6.15-3.962c1.584.315 2.573.293 2.197-.048-1.108-1.007-7.82-1.74-7.82-.856 0 1.346 1.877 2.43 2.325 1.343.23-.557 1.714-.754 3.298-.44m11.228.525c-.085-.437-.076-1.507.02-2.38.156-1.41.33-1.41 1.563 0 1.129 1.29 1.293 1.303.88.066-.81-2.418-2.974-2.425-6.361-.02-1.728 1.227-2.525 1.988-1.77 1.69.753-.296 2.225-.101 3.27.433 2.33 1.192 2.595 1.215 2.398.21m-3.333-2.028c.48-.387 1.265-.387 1.744 0 .48.388.087.706-.872.706-.96 0-1.352-.318-.872-.706m-5.669-.88c0-.292-.294-.53-.654-.53s-.654.238-.654.53c0 .29.295.528.654.528s.654-.238.654-.529m11.774 7.932c0-.582.883-1.058 1.962-1.058 1.08 0 1.962.476 1.962 1.058s-.883 1.058-1.962 1.058c-1.08 0-1.962-.476-1.962-1.058m-219.767-2.644c0-.97.588-1.605 1.308-1.41 1.539.414 1.458 1.682-.164 2.556-.63.339-1.144-.177-1.144-1.146m6.54-.834c-2.655-1.082-3.334-2.222-3.61-6.067-.48-6.69 1.995-10.107 7.037-9.716 3.126.242 4.261-.237 5.417-2.288 1.586-2.815 6.407-4.621 8.283-3.104.682.551.516 2.335-.401 4.3-1.41 3.02-1.255 3.626 1.546 6.038 1.713 1.474 3.895 2.68 4.849 2.68 2.08 0 2.17 1.051.406 4.802-1.04 2.213-1.96 2.699-4.251 2.246-1.608-.317-4.066.109-5.463.947-3.117 1.871-9.433 1.945-13.813.162m13.674-1.98c3.03-1.116 4.715-3.18 2.351-2.879-2.586.33-2.95-.271-1.077-1.785 1.563-1.264 1.726-2.154.682-3.732-.754-1.139-1.806-1.854-2.337-1.589-.53.266-.923-.938-.872-2.675s.957-3.599 2.013-4.138c1.055-.54 1.3-.989.545-.998-2.311-.027-4.513 2.391-4.513 4.955 0 2.738-.327 2.816-6.137 1.469-3.366-.78-4.023-.68-3.449.529.39.821.057 1.493-.74 1.493-.796 0-1.448.46-1.448 1.024s.86.758 1.91.432c2.288-.71 1.743 3.135-.795 5.608-1.276 1.243-1.22 1.754.278 2.52 2.63 1.345 9.629 1.225 13.59-.234m-6.479-.888c.445-.582 1.397-1.058 2.117-1.058s.944.476.5 1.058c-.445.581-1.398 1.057-2.117 1.057s-.944-.476-.5-1.057m-4.578-2.645c0-.29.294-.529.654-.529s.654.238.654.53c0 .29-.294.528-.654.528s-.654-.238-.654-.529m4.453-.692c-.578-.757-.359-.934.577-.466.83.415 1.51.964 1.51 1.22 0 .883-1.155.465-2.087-.754m5.506-3.203c.378-.495 1.235-.625 1.904-.29 1.712.855 1.52 1.188-.687 1.188-1.047 0-1.595-.404-1.217-.898m-8.651-1.922c-1.08-.564-1.374-1.026-.654-1.026s2.191.462 3.27 1.026 1.374 1.025.654 1.025-2.19-.461-3.27-1.025m18.314 6.346c0-1.163-.624-2.115-1.386-2.115s-.98.529-.486 1.176.088 1.591-.904 2.099c-1.426.73-1.324.927.487.94 1.423.01 2.289-.784 2.289-2.1m-21.584-2.115c.444-.582.22-1.058-.5-1.058s-1.672.476-2.117 1.058c-.444.581-.22 1.057.5 1.057s1.672-.476 2.117-1.057m17.66.529c0-.291-.295-.53-.655-.53s-.654.239-.654.53c0 .29.295.528.654.528s.654-.238.654-.528m50.48 3.806c-1.238-1.106-4.358-2.33-6.935-2.72-7.002-1.063-10.842-3.493-10.842-6.862 0-3.75 3.128-5.935 10.7-7.473 13.91-2.827 26.332 6.83 15.463 12.023-2.658 1.269-3.925 2.709-3.925 4.459 0 3.103-1.425 3.286-4.461.573m5.808-5.735c4.57-1.835 4.79-5.276.51-7.998-7.63-4.853-24.895-.506-22.023 5.545.895 1.886 7.282 3.853 12.512 3.853 2.645 0 3.756.538 3.822 1.85.085 1.722.157 1.718 1.02-.05.51-1.046 2.382-2.486 4.16-3.2m-6.58-.187c0-.29.295-.529.655-.529s.654.238.654.53c0 .29-.295.528-.654.528s-.654-.238-.654-.529m-10.465-2.226c-1.798-.892-2.259-1.372-1.023-1.066 1.237.305 2.596.1 3.021-.456s1.474-.974 2.331-.928c1.201.064 1.2.201-.004.597-.859.283-1.237 1.197-.84 2.032.886 1.868.614 1.854-3.485-.179m10.466-.418c0-.582.623-1.058 1.385-1.058s1.021.476.577 1.058c-.445.582-1.068 1.058-1.386 1.058s-.576-.476-.576-1.058m3.052-3.803c0-.817.785-1.486 1.744-1.486.96 0 1.744.425 1.744.945s-.785 1.188-1.744 1.486c-.96.297-1.744-.128-1.744-.945m4.796 1.159c0-.291.295-.53.654-.53s.655.239.655.53c0 .29-.295.528-.655.528s-.654-.238-.654-.528m-11.773-1.058c0-.291.294-.53.654-.53s.654.239.654.53c0 .29-.294.529-.654.529s-.654-.238-.654-.53M33.3 373.71c.48-.388 1.264-.388 1.744 0s.087.705-.872.705c-.96 0-1.352-.317-.872-.705m6.54-1.058c.48-.388 1.265-.388 1.745 0s.087.705-.872.705c-.96 0-1.352-.317-.873-.705m98.547 14.808c-1.88-1.519-.71-4.806 2.589-7.278 2.642-1.98 2.951-2.594 1.308-2.594-1.622 0-2.153-.994-2.153-4.031 0-5.04 3.83-8.662 9.162-8.662 4.613 0 6.739 2.674 7.004 8.81.127 2.93 1.146 5.07 3.219 6.755 4.326 3.517 3.249 5.932-3.047 6.835-6.778.972-16.97 1.065-18.082.165m18.423-2.077c1.618-.35 2.943-1.086 2.943-1.634 0-.549-.68-.657-1.51-.242-.965.482-1.154.288-.523-.537 1.267-1.658-2.885-4.246-6.883-4.29-5.282-.06-10.64 2.973-10.686 6.048-.021 1.41 11.147 1.85 16.659.655m-15.082-1.622c.28-.678 1.948-1.92 3.707-2.76 2.808-1.342 2.921-1.34.93.014-1.248.848-1.958 1.793-1.579 2.1.38.307-.267.855-1.438 1.218-1.31.407-1.932.187-1.62-.572m11.76-2.578c-.928-.813-1.11-1.48-.405-1.48 1.359 0 3.325 2.013 2.55 2.609-.252.193-1.218-.315-2.145-1.129m-4.2.107c0-.29.294-.529.654-.529s.654.238.654.53c0 .29-.294.528-.654.528s-.654-.238-.654-.529m-1.679-6.13c-.385-.812.398-1.434 1.921-1.527 2.214-.135 2.33.08.838 1.543-1.464 1.434-1.429 1.618.228 1.18 1.08-.285 2.146-1.768 2.37-3.296l.408-2.78-4.005 1.616c-3.997 1.613-4.782 2.596-3.133 3.93 1.406 1.136 2.075.812 1.373-.666m-5.298-1.45c-.48-.388-.872-.07-.872.705 0 .776.392 1.093.872.705s.48-1.022 0-1.41m9.593-5.795c0-.49-1.324-.691-2.943-.447s-3.364.479-3.879.522c-.514.043-1.538.99-2.276 2.105l-1.34 2.026 5.219-1.658c2.87-.912 5.22-2.058 5.22-2.548m-5.232.682c0-.29.294-.528.654-.528s.654.238.654.528-.295.53-.654.53-.654-.239-.654-.53m-43.823 16.174c-5.433-1.54-8.503-3.925-8.503-6.606 0-3.076 2.418-4.808 6.714-4.808 2.368 0 3.842-.68 4.367-2.018 1.699-4.327 9.038-3.913 10.435.59.466 1.498.188 5.29-.616 8.423-1.34 5.215-1.76 5.69-4.968 5.614-1.927-.045-5.27-.584-7.429-1.195m8.46-2.382c2.098-2.043 3.09-9.172 1.537-11.037-1.37-1.643-5.419-.863-5.419 1.044 0 .9.46.912 1.756.042 1.84-1.235 3.491-.586 3.457 1.36-.011.63-.59.432-1.288-.44-.762-.954-1.276-1.085-1.288-.328-.011.693.568 1.554 1.288 1.914s1.308 1.13 1.308 1.711-.522.797-1.16.478c-.639-.319-1.135.01-1.102.73.144 3.245-.459 5.014-1.708 5.014-.934 0-.934-.636 0-2.046 1.88-2.842 1.954-2.763-3.906-4.182-5.315-1.288-7.822-.925-7.822 1.131 0 .696.77.608 2.018-.23 1.434-.961 2.423-1.025 3.418-.22 1.89 1.527.035 3.731-2.483 2.95-1.638-.508-1.718-.336-.426.922 1.405 1.37 3.936 2.117 8.76 2.588.81.08 2.188-.55 3.06-1.4m-9.114-3.214c0-.291-.294-.53-.654-.53s-.654.239-.654.53c0 .29.294.529.654.529s.654-.238.654-.53m6.54-3.702c0-.582-.588-1.058-1.308-1.058-.719 0-1.308.476-1.308 1.058 0 .581.589 1.057 1.308 1.057s1.309-.476 1.309-1.057m11.037 7.714c-1.908-1.542-2.113-3.174-1.408-11.199.453-5.167 1.156-9.828 1.562-10.359.405-.53 2.691-.965 5.079-.965 3.044 0 4.933-.71 6.32-2.38 1.089-1.308 2.485-1.983 3.103-1.498s1.124 6.354 1.124 13.042c0 10.816-.28 12.326-2.539 13.662-3.469 2.052-10.529 1.89-13.241-.303m4.798-1.277c-1.56-.8-1.56-1.004 0-1.419 1.004-.266.724-.344-.622-.172-2.1.267-2.344-.201-1.721-3.306.4-1.99.294-3.833-.234-4.097-.529-.264-1.101 1.204-1.272 3.261-.317 3.796 1.517 6.713 4.2 6.684.839-.01.688-.42-.35-.951m4.66.262c-.48-.388-1.265-.388-1.744 0-.48.387-.088.705.872.705.959 0 1.351-.318.872-.705m1.984-2.698c-.939-.759-1.548-.821-1.548-.158 0 1.412 1.547 2.662 2.42 1.957.372-.301-.02-1.11-.872-1.799m2.376-1.357c0-.29-.294-.529-.654-.529s-.654.238-.654.529c0 .29.294.529.654.529s.654-.238.654-.529m0-4.886c0-.75-.842-.435-1.92.717-2.52 2.694-2.55 4.232-.042 2.205 1.08-.873 1.962-2.188 1.962-2.922m-5.232 2.884c0-.229-.883-.69-1.963-1.025-1.079-.335-1.962-.148-1.962.416 0 .563.883 1.024 1.962 1.024 1.08 0 1.963-.187 1.963-.415m2.376-7.253c.327-2.298-.125-2.909-2.15-2.909-2.545 0-4.15 1.903-4.15 4.92 0 1.027 1.022 1.456 2.943 1.236 2.107-.242 3.06-1.164 3.357-3.247m-8.917 1.85c0-.29-.294-.528-.654-.528s-.654.238-.654.529c0 .29.294.529.654.529s.654-.238.654-.53m3.924-7.161q1.969-.605-.98-.688c-1.978-.056-2.937.524-2.924 1.768.012 1.142.388 1.405.981.687.529-.64 1.844-1.435 2.923-1.767m7.413-.419c-.48-.387-.872-.07-.872.706 0 .775.393 1.093.872.705.48-.388.48-1.023 0-1.41m-2.18.177c0-.291-.294-.53-.654-.53s-.654.239-.654.53c0 .29.294.529.654.529s.654-.238.654-.53m32.37 15.973c-3.666-2.963-3.955-5.728-1.003-9.59 5.634-7.371 16.07-10.023 22.744-5.778 3.966 2.523 4.165 3.546 1.493 7.687-1.375 2.132-1.562 3.57-.646 4.955 1.937 2.925 1.746 3.057-4.268 2.952-3.058-.054-7.956.258-10.885.692-4.108.609-5.808.399-7.436-.918m-171.032-1.694c0-.582.588-1.058 1.308-1.058s1.308.476 1.308 1.058-.589 1.058-1.308 1.058-1.308-.476-1.308-1.058m3.632-5.024c-.329-1.018-.73-5.54-.892-10.049l-.295-8.197h8.438c7.525 0 8.666.282 10.55 2.607 1.392 1.717 2.113 4.929 2.113 9.407 0 7.87-.31 8.083-11.728 8.083-6.128 0-7.704-.356-8.186-1.851m5.524-1.26c0-.547-.588-1.29-1.308-1.649-.72-.36-1.308.088-1.308.995s.589 1.65 1.308 1.65 1.308-.448 1.308-.996m6.541-.029c0-.564-.883-.75-1.962-.416-1.08.335-1.962.796-1.962 1.025s.883.415 1.962.415c1.08 0 1.962-.46 1.962-1.024m4.797-.738c-.48-.388-1.265-.388-1.745 0-.48.387-.087.705.873.705.959 0 1.351-.318.872-.705m-.183-2.422c-.425-.557-1.637-.744-2.694-.416-2.704.84-2.385 1.427.774 1.427 1.481 0 2.345-.455 1.92-1.011m-6.358-1.81c-.48-.387-.872-.07-.872.706s.392 1.093.872.705.48-1.022 0-1.41m-6.105.177c0-.29-.294-.529-.654-.529s-.654.238-.654.529c0 .29.295.529.654.529s.654-.238.654-.529m12.181-1.983c.989.45.94.172-.135-.762-1.439-1.25-1.872-1.234-2.923.11-.679.867-1.225 2.053-1.214 2.635.01.582.627.215 1.368-.816s2.049-1.555 2.904-1.167m-8.256.925c0-.29-.295-.529-.654-.529s-.654.238-.654.53c0 .29.294.528.654.528s.654-.238.654-.529m3.924-2.115c0-.291-.294-.53-.654-.53s-.654.239-.654.53c0 .29.294.529.654.529s.654-.238.654-.53m-4.39-4.23c-.15-2.11-.848-2.62-3.459-2.522-2.108.079-2.478.29-1.042.596 1.225.26 2.59 1.396 3.031 2.522 1.102 2.807 1.696 2.566 1.47-.596M.16 360.136c0-.291-.294-.53-.654-.53s-.654.239-.654.53c0 .29.295.528.654.528s.654-.238.654-.528m6.105-1.234c-.48-.388-.872-.07-.872.705s.392 1.093.872.705.48-1.023 0-1.41m6.02-.353c-1.233-1.163-2.405-2.115-2.604-2.115s-.364.952-.364 2.115c0 1.407.872 2.115 2.604 2.115 2.478 0 2.495-.101.363-2.115M6.7 356.962c0-.29-.294-.528-.654-.528s-.654.238-.654.528.294.53.654.53.654-.239.654-.53m-32.12 15.245c-1.348-1.763 1.684-3.786 3.489-2.327 1.51 1.22.564 3.477-1.456 3.477-.635 0-1.55-.517-2.033-1.15m47.818-.965c0-.776.392-1.093.872-.705.48.387.48 1.022 0 1.41s-.872.07-.872-.705m25.69-1.792c-1.563-1.264-.844-3.497 1.126-3.497 1.08 0 1.963.686 1.963 1.524 0 1.767-1.867 2.96-3.088 1.973m-26.986-6.823c-2.14-3.659-3.438-7.02-2.884-7.468s6.178-.924 12.5-1.058c8.723-.186 11.766-.635 12.63-1.865.984-1.402 1.413-1.335 3.192.496 1.491 1.534 1.842 3.386 1.279 6.746-1.368 8.15-.913 7.878-15.294 9.141l-7.532.662zm-44.606 2.405c-4.477-2.931-4.187-9.12.582-12.438 10.024-6.971 22.07 3.159 13.83 11.63-3.3 3.391-9.901 3.761-14.412.808m129.148.389c-.933-1.966 2.38-6.49 5.854-7.993 1.762-.763 2.202-1.81 1.67-3.964-1.043-4.215 3.036-7.968 8.524-7.842 5.092.117 7.434 1.526 8.558 5.15 1.603 5.164-6.373 10.464-11.95 7.94-1.667-.754-2.706-.04-4.961 3.408-3.04 4.649-6.376 6.08-7.695 3.3m52.8-.526c0-.581.588-1.057 1.308-1.057s1.308.476 1.308 1.057c0 .582-.589 1.058-1.308 1.058s-1.308-.476-1.308-1.058m-13.839-2.558c-11.302-3.98-7.532-18.724 5.462-21.36 7.017-1.425 16.226 4.457 16.226 10.363 0 9.583-10.533 14.924-21.688 10.997m9.478-2.378c-.48-.388-.872-.07-.872.705 0 .776.393 1.093.872.706.48-.388.48-1.023 0-1.41m5.669.177c0-.291-.294-.53-.654-.53s-.654.239-.654.53c0 .29.294.528.654.528s.654-.238.654-.528m-16.632-2.661c-.649-2.005-2.99-4.057-2.99-2.62 0 .898 2.59 4.752 3.194 4.752.267 0 .175-.96-.204-2.132m5.83-.235c.167-1.784-.065-1.992-.943-.844-.64.838-.874 1.903-.519 2.367.987 1.291 1.223 1.045 1.463-1.523m6.293.342c-.407-.532 0-1.209.903-1.503.992-.324.736-.57-.646-.62-1.259-.046-2.289.63-2.289 1.503s.624 1.587 1.386 1.587 1.052-.435.646-.967m7.486-3.024c.986-1.007.776-1.178-.83-.68-1.18.367-2.1 1.686-2.044 2.933.07 1.547.334 1.763.83.68.4-.872 1.32-2.192 2.044-2.933m-13.878-3.06c-.48-.388-1.265-.388-1.744 0-.48.387-.088.705.872.705.959 0 1.351-.318.872-.705m8.238-.089c-.025-.436-.887-1.983-1.916-3.437l-1.869-2.645-.046 2.38c-.026 1.31.69 2.388 1.588 2.396q1.636.016-.327 1.042c-1.676.876-1.629 1.028.327 1.041 1.26.01 2.269-.34 2.243-.777m-14.779-.97c-.48-.387-1.264-.387-1.744 0-.48.389-.087.706.872.706.96 0 1.352-.317.872-.705m20.703-.34c.458-.6-.067-.777-1.23-.415-2.267.703-2.682 1.461-.8 1.461.677 0 1.59-.47 2.03-1.046m-13.726-1.598c0-.873-.232-1.587-.514-1.587s-.853.714-1.267 1.587c-.414.872-.183 1.586.514 1.586s1.267-.714 1.267-1.586m-5.066-1.323c1.627-1.677 1.581-1.715-.494-.399-1.259.799-2.289 1.632-2.289 1.851 0 .87 1.074.31 2.783-1.452m17.335-.745c-.384-.809-1.65-1.766-2.813-2.127-1.87-.58-1.857-.426.104 1.326 1.22 1.09 1.776 2.377 1.235 2.86-.541.482-.274.547.594.144.868-.402 1.264-1.394.88-2.203m6.699 13.174c-.954-1.248.283-3.173 2.04-3.173.676 0 1.23.952 1.23 2.115 0 2.23-1.903 2.846-3.27 1.058m8.83-2.149c-1.62-1.62-2.985-4.298-3.036-5.951-.05-1.654-.54-3.933-1.088-5.065-.924-1.91-1.057-1.872-1.827.51-.647 2-1.18 2.288-2.401 1.3-1.12-.905-1.191-1.955-.25-3.662.823-1.49.89-3.942.179-6.502-1.763-6.345.901-10.104 6.032-8.511 2.498.775 6.338 7.5 6.223 10.9-.05 1.504.493 5.181 1.207 8.171.975 4.078.876 6.226-.398 8.596l-1.698 3.16zm1.853-3.845c-.48-.388-.872-.07-.872.705 0 .776.392 1.093.872.705s.48-1.022 0-1.41m-.147-5.377c-.235-1.6-.494-3.741-.576-4.76s-.687-1.85-1.343-1.85c-1.023 0-1.112 2.435-.3 8.197.102.727.74 1.322 1.415 1.322.677 0 1.038-1.309.804-2.909m-2.033-.793c0-.291.294-.529.654-.529s.654.238.654.529c0 .29-.295.529-.654.529s-.654-.238-.654-.53m1.308-9.248c0-1.063-6.651-3.18-7.594-2.417-.38.307-.023.559.794.559s1.147.713.733 1.584c-.562 1.186.105 1.527 2.658 1.356 1.875-.126 3.409-.612 3.409-1.082m-3.506-5.675c-.784-1.652-3.235-1.516-3.95.22-.234.566.726 1.1 2.133 1.185 1.757.107 2.326-.333 1.817-1.405M9.564 352.385c-3.91-.448-5.047-2.935-2.417-5.285 1.146-1.024 1.762-2.805 1.38-3.988-.404-1.25.367-3.193 1.858-4.682 2.237-2.234 2.958-2.396 5.884-1.317 3.107 1.144 3.394 1.015 4.182-1.888.964-3.548 5.065-6.292 9.403-6.292 4.1 0 7.225 4.266 6.78 9.254-.272 3.05.36 4.662 2.511 6.402 3.221 2.604 3.688 4.948 1.24 6.23-1.754.917-25.809 2.14-30.82 1.566m11.175-2.72c1.66-1.341-3.795-3.817-7.285-3.306-4.549.667-6.605 2.495-4.173 3.71 2.172 1.085 9.956.812 11.458-.403m-8.702-1.253c.063-1.232.373-1.482.79-.639.378.764.332 1.676-.103 2.028-.435.351-.744-.274-.687-1.389m2.513.089c0-.291.294-.53.654-.53s.654.239.654.53c0 .29-.294.528-.654.528s-.654-.238-.654-.528m24.854.075c0-4.055-8.265-6.886-14.249-4.882-3.367 1.127-3.589 1.502-2.264 3.813 1.305 2.276 2.313 2.565 8.992 2.572 5.651.006 7.521-.368 7.521-1.503m-14.39-.075c0-.291.295-.53.655-.53s.654.239.654.53c0 .29-.294.528-.654.528s-.654-.238-.654-.528m4.454-.693c-.578-.756-.358-.934.577-.466.831.415 1.51.964 1.51 1.221 0 .882-1.155.465-2.087-.755m6.012.164c0-.776.392-1.093.872-.705.48.387.48 1.022 0 1.41s-.872.07-.872-.705m-2.616-.996c0-.547.582-1.286 1.293-1.641.741-.37.96.054.514.995-.87 1.833-1.807 2.168-1.807.646m-10.581-5.409c-1.074-.536-2.171-.387-2.773.379-1.786 2.271-1.091 2.95 1.757 1.718 2.189-.947 2.409-1.4 1.016-2.097m-5.353-.746c.311-1.763-.238-2.369-2.15-2.369-2.688 0-4.72 2.635-3.383 4.385 1.372 1.795 5.1.437 5.533-2.016m-4.996.867c0-.548.68-1.335 1.51-1.75.892-.446 1.157-.293.646.376-.476.622-.125 1.372.779 1.666.991.324.735.57-.646.62-1.26.045-2.29-.365-2.29-.912m11.773-1.65c0-.29-.295-.528-.654-.528s-.654.238-.654.529c0 .29.294.529.654.529s.654-.238.654-.53m9.19-2.184c1.972-4.196 1.464-4.437-2.085-.988-1.796 1.745-2.887 2.334-2.424 1.31.638-1.41.33-1.704-1.265-1.21-3.636 1.129-2.217 3.602 2.067 3.602 1.405 0 2.968-1.145 3.706-2.714m-5.164-3.633c1.207 0 2.968-.754 3.915-1.676 1.51-1.472 1.268-1.634-1.98-1.322-2.219.212-4.516 1.414-5.732 2.998-1.457 1.899-1.518 2.272-.214 1.322.999-.727 2.804-1.322 4.01-1.322m-36.468 16.712c-.863-.698-1.57-2.093-1.57-3.1 0-1.092-1.186-1.966-2.943-2.168-1.864-.214-2.877-1.017-2.762-2.19.126-1.282-.769-1.85-2.918-1.85-2.197 0-3.334-.753-3.902-2.584-.936-3.016.12-4.82 2.824-4.82 1.054 0 2.477-1.19 3.16-2.644 1.572-3.343 7.26-3.696 8.503-.529.457 1.164 1.634 2.116 2.617 2.116.982 0 2.16-.952 2.616-2.116.932-2.374 5.741-2.868 8.241-.846.894.722 1.57 4.182 1.57 8.032 0 5.873-.344 6.835-2.616 7.316-1.44.304-2.617 1.433-2.617 2.508 0 3.377-7.105 5.38-10.203 2.875m5.532-6.52c.567-1.434 1.667-1.834 4.034-1.469 1.79.277 3.254.093 3.254-.408 0-.5-1.325-.918-2.944-.927-2.38-.013-2.567-.212-.98-1.041 1.598-.836 1.437-1.029-.873-1.042-1.559-.009-3.102-.611-3.429-1.338-.713-1.585-5.01.11-5.929 2.338-.341.829.025 1.094.904.655.813-.406 1.478-.195 1.478.47 0 2.145-3.257.415-3.689-1.96-.29-1.593.31-2.352 1.962-2.477l4.997-.38c1.439-.109 3.352-.265 4.251-.348s1.635-.891 1.635-1.798.59-1.355 1.309-.996c.72.36 1.308-.088 1.308-.995 0-2.4-3.499-2.021-4.304.467-.524 1.62-1.784 2.115-5.385 2.115-2.585 0-4.7-.476-4.7-1.058s-.884-1.057-1.963-1.057-1.962.748-1.962 1.662c0 1.19-1.02 1.566-3.598 1.322-3.804-.36-5.257 2.21-1.78 3.147 1.022.275 1.45.01.98-.607-.511-.668.149-.888 1.69-.562 2.715.574 4.489 3.083 3.289 4.653-.405.529 1.03.962 3.189.962s4.288-.476 4.733-1.058 1.51-1.02 2.366-.974c1.124.06 1.102.232-.077.617-.9.293-1.635 1.406-1.635 2.473s-.693 2.125-1.54 2.354c-.954.257-1.116.97-.424 1.875 1.145 1.497 1.664.872 3.833-4.615m1.401 4.616c.445-.581.514-1.057.155-1.057-.36 0-1.018.476-1.463 1.057-.445.582-.514 1.058-.154 1.058s1.017-.476 1.462-1.058m6.203-12.197c-1.535-2.219-3.318-.423-2.109 2.125.538 1.133 1.28 1.39 2.102.726.818-.661.82-1.677.007-2.851m-16.45-5.431c-.48-.388-1.264-.388-1.744 0-.48.387-.087.705.872.705.96 0 1.352-.318.872-.705m145.168 20.068c-1.474-1.191-.898-2.44 1.125-2.44 1.08 0 1.962.448 1.962.996 0 1.333-2.042 2.289-3.087 1.444m-156.279-4.194c.551-2.315 4.352-2.643 4.352-.375 0 .864-1.083 1.74-2.408 1.947-1.748.272-2.28-.159-1.944-1.573m148.34-2.908c-3.547-.68-6.69-1.821-6.984-2.536-.642-1.556 4.987-12.898 6.4-12.898.545 0 1.307.413 1.693.918s3.004 1.217 5.817 1.58c5.542.717 13.257 5.677 13.257 8.523 0 1.343-.776 1.551-3.597.967-7.283-1.506-8.865-1.125-8.41 2.027.232 1.6-.062 2.852-.653 2.783-.591-.07-3.977-.683-7.524-1.364m4.486-3.78c0-2.323 4.794-3.809 9.253-2.866 2.226.47 2.405.307 1.077-.987-.876-.853-2.412-1.297-3.413-.986s-1.5.145-1.108-.368c.92-1.203-4.967-2.411-7.667-1.573-1.249.387-2.087.073-2.119-.795-.059-1.617-3.068 2.597-4.451 6.233-.547 1.44-.353 2.38.49 2.38.769 0 1.397-.98 1.397-2.177 0-1.206.593-1.882 1.33-1.514.73.365.99 1.107.576 1.649-1.046 1.37.489 3.1 2.75 3.1 1.037 0 1.885-.943 1.885-2.095m-3.27-.02c.444-.581 1.102-1.057 1.462-1.057s.29.476-.154 1.058c-.445.581-1.103 1.057-1.463 1.057s-.29-.476.154-1.057m-.655-3.701c0-.291.295-.53.654-.53s.655.239.655.53c0 .29-.295.528-.655.528s-.654-.238-.654-.528m2.617-1.058c0-.291.294-.529.654-.529s.654.238.654.529c0 .29-.295.529-.654.529s-.654-.238-.654-.53m35.32 5.817c0-.581.588-1.057 1.307-1.057.72 0 1.309.476 1.309 1.057 0 .582-.59 1.058-1.309 1.058s-1.308-.476-1.308-1.058m-13.736-2.88c-6.395-1.271-7.898-5.525-2.89-8.178 2.18-1.155 4.85-1.41 9.8-.936 7.163.686 10.241 2.437 8.975 5.106-.962 2.027-15.164 2.25-17.75.278-1.398-1.067-1.618-1.016-1.139.264.433 1.158 3.218 1.73 10.302 2.115 8.218.448 9.03.651 5.293 1.323-4.734.85-8.41.858-12.591.027m13.172-4.642c.494-.647.087-1.591-.904-2.1-2.21-1.13-13.843-1.26-14.682-.162-.334.437 1.986.627 5.155.423 3.404-.22 5.762.078 5.762.726 0 .662-1.951.88-4.906.548-3.702-.415-4.424-.273-2.943.58 2.59 1.49 11.375 1.48 12.518-.015m-154.476.085c-.508-.665-.309-1.706.444-2.315 1.758-1.421 5.856-.181 5.141 1.556-.728 1.768-4.43 2.27-5.585.759m9.836-3.14c0-.582.624-1.058 1.386-1.058s1.021.476.576 1.058-1.068 1.058-1.385 1.058-.577-.476-.577-1.058" style="mix-blend-mode:hue" transform="translate(108.413 -328.86)" fill="#000" opacity=".6"/></svg>